<svg xmlns="http://www.w3.org/2000/svg" viewBox="0 0 4680 3120"><g data-name="4"><rect width="4680" height="3120" fill="#fff" data-name="4" opacity="0"/><path fill="#f5f5f7" d="M2974.47,618.93a2121.16,2121.16,0,0,1-642.61-120.78C2261,473,2187,443.83,2117.27,419.21,1770.93,297,991.65,411.57,948.36,1165.39s594.87,1370.3,1744.46,1209.66c1166.37-163,1250.41-949.91,983-1410.85C3504.33,668.56,3223,626.79,2974.47,618.93Z"/><polygon fill="#fff" points="2305.53 360 2626.81 360 2768.74 701.1 2447.46 701.1 2305.53 360"/><polygon fill="#fff" points="2272.83 360 2414.76 701.1 2093.48 701.1 1951.55 360 2272.83 360"/><polygon fill="#fff" points="2458.6 727.88 2779.88 727.88 2984.34 1219.28 2663.06 1219.28 2458.6 727.88"/><polygon fill="#fff" points="2630.36 1219.28 2309.08 1219.28 2104.62 727.88 2425.9 727.88 2630.36 1219.28"/><polygon fill="#fff" points="2996.23 1247.86 3200.69 1739.26 2879.41 1739.26 2674.95 1247.86 2996.23 1247.86"/><polygon fill="#fff" points="2846.71 1739.26 2525.43 1739.26 2320.97 1247.86 2642.25 1247.86 2846.71 1739.26"/><rect width="276.54" height="50.99" x="3013.26" y="801.88" fill="#5681bf" transform="rotate(-90 3151.53 827.37)"/><rect width="50.99" height="3.97" x="3126.03" y="932.93" fill="#3d5891"/><rect width="50.99" height="3.97" x="3126.03" y="921.86" fill="#3d5891"/><rect width="50.99" height="3.97" x="3126.03" y="728.92" fill="#3d5891"/><rect width="50.99" height="3.97" x="3126.03" y="717.84" fill="#3d5891"/><rect width="331.57" height="23.22" x="2948.64" y="810.55" fill="#b5cae8" transform="rotate(-90 3114.42 822.16)"/><rect width="333" height="44.3" x="3032.68" y="793.57" fill="#99b1da" transform="rotate(-90 3199.18 815.73)"/><path fill="#f19a6d" d="M2952.55,859.7v46.58a48.23,48.23,0,0,0,20.68,39.63,47.73,47.73,0,0,0,25,8.66c.9.08,1.8.08,2.7.08h10a48.36,48.36,0,0,0,48.37-48.37V817.62l-19.37,7.68-34,13.4Z"/><path fill="#f3ce90" d="M2952.55,859.7v46.58a48.23,48.23,0,0,0,20.68,39.63c1.7-.7,3.31-1.44,4.85-2.24,17.62-9.09,27.83-28.16,27.83-48v-57Z"/><path fill="#ef7c59" d="M2998.23,954.57c.9.08,1.8.08,2.7.08h10a48.36,48.36,0,0,0,48.37-48.37V817.62l-19.37,7.68v77.22c0,14.05-4.74,27.94-14.21,38.32C3019.15,948,3010.16,954.08,2998.23,954.57Z"/><path fill="#f3ce90" d="M3333.72,829.81h110.64c4.2,0,8,4.38,9.64,11.12l26.08,106.84c1.46,6-1.06,12.64-4.79,12.64h-172.5c-3.73,0-6.25-6.65-4.79-12.64l26.08-106.84C3325.72,834.19,3329.52,829.81,3333.72,829.81Z"/><path fill="#2e6857" d="M3364.19,837.61c-5.2,2.83-10.54,5.41-16,7.74-6.16,2.64-12.62,5-19.33,5s-20.61,2.61-24.39-2.93,3.75-19.3,9.26-23.11c2.56-1.78,5.74-2.36,8.8-3a145.88,145.88,0,0,0,23.76-7.11Z"/><path fill="#6fc183" d="M3432.5,820.23c9.54-6.1,36.75-31.58,41.49-41.87,4.43-9.61,3.6-20.85,1-31.1-2.13-8.32-15.3-27-19.81-28s-12.74,7-16.85,14.88c-3.37,6.49-2.35,14.28-1.35,21.52,1.12,8.15,2.09,16.43.95,24.57s-4.65,16.26-11.08,21.38Z"/><path fill="#2e6857" d="M3426.31,771c2.15-14,4.27-28.38.25-41.6s-15.82-25.1-31.31-25.65a5.33,5.33,0,0,0-2.38.31,5.2,5.2,0,0,0-2,1.83,62.23,62.23,0,0,0-12,29c-.9,7-.48,14-.06,20.9q.72,11.71,1.43,23.42Z"/><path fill="#6fc183" d="M3382,785.12c3-8.8,0-19.22-3-28.66q-5.55-17.61-11.11-35.2c-1.31-4.15-2.66-8.4-5.14-11.87s-6.35-6-10-5.38c-2.7.49-4.81,2.63-6.6,4.88-14.63,18.35-15.45,49.74-1.88,72Z"/><path fill="#2e6857" d="M3350.37,780.94l-22-42.37c-1.81-3.49-3.66-7-6.47-9.78s-6.8-4.59-10.66-3.87c-4.12.77-7.29,4.33-8.76,8.26s-1.52,8.24-1.5,12.44c0,14.91,1.22,31.09,11,42.35,4.53,5.24,10.56,8.93,16.6,12.31,10.52,5.88,21.73,11.19,33.74,12.23Z"/><path fill="#40947e" d="M3360.87,806.05c-6.76,2.06-14-.71-19.78-4.43-5.33-3.42-15.6-12.48-21-14.74-14.08-5.88-36.28-6-39.69.35-4,7.46.06,19.52,3.54,25.28,5.63,9.28,23.06,12.25,34.34,12.33a103.71,103.71,0,0,0,41.54-8.4Z"/><path fill="#2e6857" d="M3402.53,838.14c4.49,6,13.69,9.85,21.07,8.65,18.53-3,31.32-4.73,46.58-15.65s30.78-28.62,27-47c-1.63-7.91-7.33-17.36-13.7-18.88s-16.87,12.43-22.27,20.87c-7,11-20.1,25.82-26.59,33.46-2.37,2.79-12.54,10.17-16,11.36s-7.65.75-10.28-1.8Z"/><path fill="#6fc183" d="M3404.5,827.71c4.17-12.18,15.92-44.38,14.86-57.21s-6.77-25.73-17.27-33.17a6.63,6.63,0,0,0-9,2.44c-6.89,10.48-8.43,19.45-10.15,32.11-1.69,12.42,2.19,42.2,9.29,52.52Z"/><path fill="#40947e" d="M3399.77,824.26c17.61-3.92,35-11.38,44.52-26.69s16.88-36.42,5.33-50.29c-2.45-2.94-5.52-5.57-9.25-6.44-5.3-1.23-10.78,1.36-15,4.74a41.35,41.35,0,0,0-15,25.75c-1,6.29-.48,12.73-1.12,19.07-.89,8.72-3.9,17.06-6.89,25.3-1.06,2.92-3.43,6.5-6.33,5.38Z"/><path fill="#40947e" d="M3398.42,824.67c-4.62-10.14-18.22-49-20.55-59.86s-7.17-22.49-16.4-27.52c-2.58-1.4-5.6-2.2-8.15-1.11-2,.84-8.88,5.23-12.25,18.29-1.51,5.87-.9,12.3.4,18.43,3,14,23.21,58.08,51.54,53.43Z"/><path fill="#40947e" d="M3425.2,831.18c8.9,2.71,17.42,7.56,26.71,8.12,25.21,1.52,10.08,17.18,9.43,17.7-7.1,5.68-23.31,7.79-38.74,5.41-12.06-1.87-26.64-17.95-24.7-29.73Z"/><path fill="#6fc183" d="M3399.37,832.23c1.92,5.24,1.45,19.28-.25,24.73s-6.8,9.58-12.43,11.62-15.4,6.85-21.32,6.54-8.48-5.9-12.34-9.89a18,18,0,0,1-4.15-8.74c-.8-3.62-1.09-7.54.46-11s4.4-6,7.35-8.32A153.63,153.63,0,0,1,3379.31,822Z"/><path fill="#6fc183" d="M3387.62,828.23c-18.26,4.25-38.78-4.32-48.58-20.3-5.65-9.22-7.78-20.95-4-31.06,3-8,11.1-14.94,19.45-13.18,6.31,1.32,10.81,7.22,12.64,13.41s1.55,12.76,1.76,19.21c.19,5.89,4,11.92,7.58,17.13s16.93,11.35,22.72,9.54Z"/><path fill="#6fc183" d="M3401.65,817.81a15.9,15.9,0,0,0-6.18,3.52,7.7,7.7,0,0,0-2.29,6.74,9.73,9.73,0,0,0,2.46,4.23c9.85,11.15,26.42,14.4,40,8.83,7.33-3,14.1-8.75,16.66-16.66a13.63,13.63,0,0,0,.61-7.06c-1.18-5.41-5-13.91-16.33-9.54A43.53,43.53,0,0,0,3430,811c-7.23,4.27-21.21,11-28.37,6.83Z"/><path fill="#2e6857" d="M3390.78,817.26a16.92,16.92,0,0,1,7.08,2.2,7.32,7.32,0,0,1,3.6,6.18,9.78,9.78,0,0,1-1.82,4.66c-8.3,13-25,19.57-40.23,16.87-8.19-1.47-16.3-5.75-20.38-13-1.18-2.09-10.3-23.12,1.49-24,1.62-.12,17,5.38,19.39,6.17,8.32,2.73,24.14,6.53,30.87.93Z"/><rect width="627.35" height="42.8" x="2904.01" y="952.53" fill="#d1dbed" rx="1.5" transform="rotate(-180 3217.69 973.93)"/><ellipse cx="2580.11" cy="2701.94" fill="#7a8db0" rx="620.58" ry="45.06"/><ellipse cx="1196.63" cy="2423.25" fill="#7a8db0" rx="296.98" ry="45.06"/><polygon fill="#243354" points="2897.16 2427.47 2940.9 2711.77 2890.91 2711.77 2806.56 2427.47 2897.16 2427.47"/><polygon fill="#243354" points="1811.77 2427.47 1768.03 2711.77 1818.01 2711.77 1902.37 2427.47 1811.77 2427.47"/><polygon fill="#5681bf" points="1818.28 2483.45 2901.04 2475.23 2901.04 2140.74 1818.28 2140.74 1818.28 2483.45"/><polygon fill="#3d5891" points="1822.6 2140.74 2907.28 2149.65 2907.28 1948.95 1818.28 1928.56 1822.6 2140.74"/><path fill="#5681bf" d="M3103.91,1635.67s-8-278.5-314.61-292.92-761.44,0-761.44,0-385.1-14.42-394,228.13l76.52,465h1189Z"/><path fill="#99b1da" d="M3124.36,1673.31c3.55,128.31,36.8,694.2-79.22,801.92H2901c-37.57,0-35.52-17.76-34.12-55.31l27.39-734.24a65.31,65.31,0,0,1,14.3-38.71c18.94-23.4,57-59.49,109.2-56,35.75,2.39,61.51,14.21,78.83,26.17C3114.92,1629.75,3123.75,1651.1,3124.36,1673.31Z"/><path fill="#99b1da" d="M1596.8,1673.31c-3.55,128.31-36.8,694.2,79.22,801.92h144.1c37.57,0,35.52-17.76,34.12-55.31l-27.39-734.24a65.31,65.31,0,0,0-14.3-38.71c-18.94-23.4-57-59.49-109.2-56-35.75,2.39-61.51,14.21-78.83,26.17C1606.24,1629.75,1597.41,1651.1,1596.8,1673.31Z"/><polygon fill="#f5b0a6" points="2737.33 2104.33 2457.91 2041.32 2449.38 2216.19 2723.48 2202.02 2737.33 2104.33"/><path fill="#2f4171" d="M2701.94,2089.83l-9.38,88-64.78-18.41-12,109s45,2.42,75.5,8.25c50.67,9.67,101.36,69.55,106.9,111.74,8.19,62.37,85.82,54.55,85.82,54.55l-1.42-185.52-48.5-76.75s12.86-12.45,47.76-20.43l4.22-60.36Z"/><path fill="#2f4171" d="M2665.38,2266.93s-43.94-54.83-13.85-62.24S2705.05,2233.08,2665.38,2266.93Z"/><path d="M2665.11,2269.8l-1.29-1.61c-1.24-1.54-30.11-37.88-23.94-56.08,1.62-4.79,5.38-7.94,11.18-9.36,14.32-3.53,28.06,2.13,34.19,14.09,3.62,7,4.11,15.32,1.43,23.91-3,9.62-9.74,18.95-20,27.71Zm-5.7-64.08a30.82,30.82,0,0,0-7.4.91c-4.44,1.1-7.17,3.31-8.34,6.76-2.22,6.53,1,17.57,9.4,31.92a191.37,191.37,0,0,0,12.59,18.72c13.28-12,24.06-29.72,16-45.37C2677.48,2210.45,2669,2205.72,2659.41,2205.72Z"/><path fill="#2f4171" d="M2665.38,2266.93s-62.32,27.77-44.55,48.64S2686,2325.75,2665.38,2266.93Z"/><path d="M2642.73,2327.35a30.92,30.92,0,0,1-23.43-10.48,13.94,13.94,0,0,1-3.29-12.63c4.37-19.25,46.75-38.33,48.55-39.13l2-.89.71,2.05c9.43,26.89,5.73,48.31-9.9,57.28A29.28,29.28,0,0,1,2642.73,2327.35Zm21.47-57.66a201.75,201.75,0,0,0-19.93,10.9c-14.34,9-22.76,17.51-24.35,24.54a9.94,9.94,0,0,0,2.43,9.14c8,9.33,22.45,11.89,33,5.82C2668.81,2312.37,2672.05,2293.62,2664.2,2269.69Z"/><rect width="59.8" height="4" x="2673.67" y="2253.95" fill="#fff" transform="rotate(-68.65 2703.747 2255.968)"/><rect width="59.8" height="4" x="2699.8" y="2266.66" fill="#fff" transform="rotate(-60.5 2729.68 2268.66)"/><rect width="49.65" height="4" x="2729.32" y="2296.07" fill="#fff" transform="rotate(-46.91 2754.105 2298.057)"/><path fill="#2b4b93" d="M2078.87,1886.3c86,9.9,462.77,157.2,462.77,157.2L2533,2305.56s-717.47-116.66-744.59-162.75C1752.09,2081.17,1939.24,1870.22,2078.87,1886.3Z"/><path fill="#d1dbed" d="M2473.05,2092.72l-14.36,200.44Z"/><polygon fill="#284689" points="2249.74 2103.3 2203.77 2155.74 2540.26 2085.2 2249.74 2103.3"/><polygon fill="#f5b0a6" points="1758.8 2622.49 1945.19 2407.99 1805.46 2302.49 1670 2546.02 1758.8 2622.49"/><path fill="#2f4171" d="M1791.33,2613.5l-67.43-57.27,51.68-43.18-83.31-71.3s-27.32,35.81-49.32,57.76c-36.52,36.43-114.54,44.61-152.53,25.44-56.16-28.34-93.39,40.22-93.39,40.22l154.12,103.27,90.74,3.12s3,17.64-10,51l47.5,37.47Z"/><path fill="#2f4171" d="M1665.54,2483.58s70-5.44,59.24,23.6S1671.18,2535.44,1665.54,2483.58Z"/><path d="M1699.17,2528.42a28.28,28.28,0,0,1-3.42-.21c-7.86-1-15-5.23-20.56-12.28-6.26-7.9-10.18-18.71-11.64-32.13l-.22-2.05,2.05-.16c2-.15,48.25-3.56,59.82,11.79,3,4,3.53,8.91,1.45,14.5C1722,2520.51,1711.17,2528.42,1699.17,2528.42Zm-31.39-43c2.4,17.71,11,36.62,28.47,38.79,11.45,1.43,22.17-5.71,26.65-17.75,1.6-4.29,1.31-7.79-.89-10.7-4.15-5.51-15.11-9-31.67-10.2A191.54,191.54,0,0,0,1667.78,2485.45Z"/><path fill="#2f4171" d="M1665.54,2483.58s12.13-67.14-15.12-64.2S1605.32,2467.52,1665.54,2483.58Z"/><path d="M1667.12,2486.08l-2.1-.56c-27.53-7.35-43.15-22.46-41.77-40.43,1.08-14,12.92-26.18,27-27.69a13.89,13.89,0,0,1,12.28,4.39c13.45,14.44,5.37,60.21,5,62.15Zm-15-64.79c-.48,0-1,0-1.48.08-12.19,1.32-22.47,11.87-23.4,24-1.19,15.45,12.49,28.69,36.68,35.67a199.79,199.79,0,0,0,2.21-22.61c.62-16.93-1.66-28.67-6.56-33.94A9.72,9.72,0,0,0,1652.12,2421.29Z"/><rect width="4" height="59.8" x="1651.11" y="2491.44" fill="#fff" transform="rotate(-34.39 1653.172 2521.4)"/><rect width="4" height="59.8" x="1625.9" y="2505.87" fill="#fff" transform="rotate(-26.24 1627.513 2535.408)"/><rect width="4" height="49.65" x="1587.84" y="2514.6" fill="#fff" transform="rotate(-12.65 1589.886 2539.48)"/><path fill="#2c4da2" d="M1920.47,2501.76l-213.06-125.45s336.5-450.66,385.6-471.87c65.66-28.36,310.4-21.63,322.85-38.24,8.62-11.5,109.92-134.9,109.92-134.9l315.72-14.37s87.64,253.29-16,318.87c-100.08,63.32-575.74,67.5-575.74,67.5Z"/><path fill="#d1dbed" d="M1968.24,2447.59l-201.63-143.43Z"/><path d="M2824.63,1307.89c-7.18-12.28-2.86-28.26,4.83-40.22s18.43-21.81,25.48-34.17a68.08,68.08,0,0,0,8.73-29c.76-11.14-1.68-23.2-9.69-31-8.38-8.14-21.52-10.45-28.81-19.58-7.83-9.8-6.2-24.3-1-35.73s13.37-21.32,18.27-32.87c12-28.29,1-63.6-23.12-82.62s-58.85-22.11-87.4-10.72c-13.66,5.45-26.65,15.63-33.68,28.16-3.3-17.78-16.56-55.18-69.53-48.31-64.22,8.33-57.3,49.1-95.16,47s-52-7.4-66.24,31.94-23,77.27,47.68,91.85S2651.54,1211,2651.54,1211s66.86,4.87,87.49-56.1c3.29,3.82,6.76,7.55,9.83,11.52,7.06,9.16,11.95,22.19,5.9,32-2.65,4.31-7,7.26-10.89,10.46a83.62,83.62,0,0,0-30.19,57.65c-.91,11.67,1.07,24.33,9.07,32.87,10.78,11.52,29.92,12,43.72,4.31-2.18,21.29,18.45,39.74,39.74,42s42-7.66,59.75-19.6C2850.35,1324.67,2832.53,1321.42,2824.63,1307.89Z"/><path fill="#6fc183" d="M2377.72,1485.39l86.5-133.42c5.79-17.51,14.28-31.3,25.53-39.39,9.86-7.08,33.9-11.21,61.75-13.58,56.83-4.84,129.47-2.29,129.47-2.29s5.66-6.17,11.43-4.48c21.92,6.46,77.4,30.08,127.82,39.08,13.74,2.45,23.41,8.8,29.93,17.85,6.84,9.47,10.22,21.93,11.21,36,2.47,34.84-9.64,79.65-20.26,114.08-4.81,15.59-15.06,35.89-9.63,55.93C2849,1619.71,2838,1736,2838,1736c-206.22,72.39-298.35,17.55-312.21-4.68,0,0-2.84-9.13-7-22.47-4.64-14.79-10.91-34.77-16.8-53.26-4.89-4.73-11.24-10.68-19.53-18.23-33.57-30.53-41.19-58.56-41.88-91.38C2393,1526,2377.72,1485.39,2377.72,1485.39Z"/><path fill="#40947e" d="M2886.52,1506.42s-9.52,43.75-73,51.58-84.33-2.49-84.33-2.49-12.32-71,48.25-87.7S2884.48,1474.47,2886.52,1506.42Z"/><path fill="#f5b0a6" d="M2733.74,1447.09s1.06,199.56-12.95,228.9-272.52,40.72-272.52,40.72l-10.75,38.76s269.56,94.76,371.25,25.93c72.15-48.84,65-368.54,65-368.54Z"/><polygon fill="#fff" points="2542.36 1797.05 2554.15 1787.08 2425.51 1475.64 2212.69 1511.23 2108.81 1479.53 2101.29 1489.18 2213.83 1533.85 2415.02 1496.1 2542.36 1797.05"/><polygon fill="#2f4171" points="2415.02 1496.1 2543.74 1800.59 2340.42 1824 2205.92 1524.39 2415.02 1496.1"/><polygon fill="#2f4171" points="2340.42 1824 2243.54 1780.8 2097.92 1488.05 2205.92 1524.39 2340.42 1824"/><path fill="#f5b0a6" d="M2197.67,1692.89c5.89-1,37.38-18.56,28.57-26.48-7.15-6.42-39.14.28-39.14.28s-4.37-7.6-4.4-8.49l-1.34-2.33-11.55-24.2a56.16,56.16,0,0,0-13.12,7.84c-11.44,9.49,2.76,38.76,2.76,38.76s-14.1,12.76-8.48,24.62,19.69,8.18,19.69,8.18-11.57,12.22-3.06,20.76,22.05-.55,22.05-.55-10,20-1.55,25,18.43,1.12,18.43,1.12-7.51,14.46,6.88,17.92,30.11-8.88,39.08-16.84,2.34-15.06-27.69-6.91c0,0,28.39-17.34,29.07-23.15,1.61-13.87-27.47-13.18-44.86-8.54,13.31-4.49,46.31-16,40.12-28.59C2243.92,1680.77,2203.56,1691.89,2197.67,1692.89Z"/><path fill="#40947e" d="M2859.48,1371.89s29.41,68.53,27,134.53c-15.18-48.66-172.55.44-157.37,49.09l-9.26-31.77c-17.53-60.18,10.41-125.17,67.22-151.68C2810.22,1361.27,2835.42,1358,2859.48,1371.89Z"/><path fill="#f5b0a6" d="M2693.42,1142.13c-18.08-16-24.09-1-43,10.65,0,0-2.52-16.19-2.84-21a23,23,0,0,1-8.44,1.86c-16.83,0-30.42-38.18-30.42-38.18-48.25,18.57-80.64-26.78-80.64-26.78-2.15,16.91,19.78,32.69,19.78,32.69-25.15,1.2-36.51-14.6-41-23.75-8.79,10.46-19.28,27.21-20.42,48.44.29,1.83.5,3.56.59,5.16l5.27,49.78,1.75,16.79s1.83,16.06,2.25,18.18a11.58,11.58,0,0,0,1,4.12c1.05,17.49,29.08,50.52,41.52,59.66,16.77,12.32,33.53,10.11,49.51.06,1.39,9.29,2.53,19.13,2.52,26.43,0,3.31-.81,6-.92,8-4.85,88.27,30.49,76.15,56.51,53.17,38.11-33.65,45.7-66.94,45.7-66.94s-17.6-43.15-20.08-79.71c-.1-1.65-.34-3.2-.58-4.71,5.34-4.89,10.34-8.38,16.42-13.83C2708.1,1184.12,2709.6,1156.44,2693.42,1142.13Z"/><path d="M2553.58,1230.62c-4.82-2.52-20.5-11.29-20-18.36.1-1.61,1-3.81,4.8-5.19,9.41-3.46,5.5-24,3.19-31.6l3.83-1.16c.39,1.27,9.22,31.06-5.65,36.51-.79.29-2.13.9-2.18,1.7-.16,2.41,6.64,8.66,17.9,14.55Z"/><path d="M2559.12,1247.3a41.25,41.25,0,0,1-7.21-.57l.76-3.93c.18,0,17.49,3.21,32-7.6l2.38,3.21A46.86,46.86,0,0,1,2559.12,1247.3Z"/><path d="M2563.82,1147.55l-2.37-3.22c.91-.67,22.62-16.41,50.64-8.77l-1.05,3.86C2584.94,1132.3,2564,1147.4,2563.82,1147.55Z"/><path d="M2527.46,1155.35a14,14,0,0,0-7.84-6.88c-4.83-1.61-10.77-.46-17.65,3.4l-2-3.48c7.93-4.46,15-5.7,20.95-3.69a17.82,17.82,0,0,1,10.17,9.06Z"/><ellipse cx="2523.33" cy="1185.18" rx="5.53" ry="9.61" transform="rotate(-19.35 2522.831 1185.042)"/><ellipse cx="2581.7" cy="1177.66" rx="5.53" ry="9.61" transform="rotate(-19.35 2581.215 1177.52)"/><path fill="#284689" d="M2415.85,1868.2a2,2,0,0,1-.34-4l105.84-18.56,50.4-40.79a2,2,0,1,1,2.51,3.1l-51.19,41.45-106.87,18.74A2.07,2.07,0,0,1,2415.85,1868.2Z"/><polygon fill="#f19a6d" points="1410.41 2093.73 1409.61 2099.55 1408.68 2106.4 1407.57 2114.58 1402.92 2148.77 1402.42 2152.45 1397.55 2188.26 1397.03 2192.06 1377.72 2333.95 1377.2 2337.79 1367.24 2410.98 1161.56 2410.98 1158.73 2390.2 1158.22 2386.43 1156.69 2375.26 1156.19 2371.59 1147.61 2308.52 1147.02 2304.16 1127.81 2162.97 1127.19 2158.5 1123.73 2133 1118.39 2093.73 1410.41 2093.73"/><path fill="#f3ce90" d="M1436.44,2095.43a2027.32,2027.32,0,0,1-344.07,0v-31.22h344.08Z"/><path fill="#40947e" d="M1358.1,1695.92c-10.75,12.9-18.51,60.55-39.07,68.23-14.15,5.29-21.64-15.16,5.77-41,17.66-16.63,25.52-36.51,28.88-48.56-4.84-21-11.16-42.64-19.32-62.29-15.82,14.62-41.19,35.35-48.43,25.44-7.88-10.79,15.72-44.83,28.92-62.28a108.58,108.58,0,0,0-20.51-22.86c-12.36-10.1-26.72-15.89-43.38-15.45-12,.32-23,4.68-33,12,14.12,27.92,34.92,75.12,20.34,86-13.53,10.08-33.14-29-45.41-58.16-17.27,26.67-28.87,63.21-33.9,98.47,3.38,6.31,9.23,13.65,19.32,20.9,26.74,19.22,58.5,58.06,42.61,66.69s-32.45-14.18-44.28-34.52c-6.08-10.45-12.89-18.88-20.29-24.45-.25,6.17-.26,12.19,0,18C1160.57,1833,1268.83,1833,1268.83,1833S1377.23,1808,1358.1,1695.92Zm-136.28,2.22c-10.73-.11-27.79-20.14-35.77-31.26s-1.59-18.76,6.09-16.62l.33.09C1203.24,1653.59,1235.73,1698.26,1221.82,1698.14Zm94.46-26.57.32-.1c7.68-2.14,14,3,10.38,12.79-4.73,12.85-11,17.93-20.61,13.12C1300.33,1694.35,1305.5,1674.8,1316.28,1671.57Z"/><path fill="#254f42" d="M1257.18,1668.17c9.51,48.52,6.44,98.61,2.82,147.59-3.87,52.34-9.08,104.76-7.07,157.3,1.13,29.81,4.69,59.51,11.85,88.5.61,2.46,4.42,1.42,3.81-1-25.7-104.07-2-210-1.25-315.17.19-26.21-1.3-52.47-6.35-78.22-.49-2.5-4.29-1.44-3.81,1.05Z"/><path fill="#254f42" d="M1266.54,2065a3.76,3.76,0,0,1-3.7-2.93c-6.78-27.45-10.68-56.53-11.91-88.9-1.7-44.42,1.8-89.39,5.19-132.89q1-12.32,1.89-24.63c3.89-52.78,6.37-100.28-2.79-147.07h0a4,4,0,0,1,1.29-3.8,4.2,4.2,0,0,1,4-.85,3.61,3.61,0,0,1,2.39,2.83c4.52,23,6.61,48.77,6.39,78.62-.25,33.4-2.84,67.39-5.35,100.26-5.38,70.62-10.94,143.64,6.54,214.42a3.91,3.91,0,0,1-3,4.81A4,4,0,0,1,1266.54,2065Zm-2.27-283.54c-.61,11.27-1.41,22.75-2.28,34.48q-.9,12.33-1.88,24.65c-3.38,43.39-6.88,88.24-5.19,132.42a477.41,477.41,0,0,0,4.94,53.56c-9.06-60.41-4.39-121.67.15-181.23C1261.61,1824.32,1263.24,1802.87,1264.27,1781.43Z"/><path fill="#2e6857" d="M1208.52,1833.5c-1.07,16.76,20.77,59.82,8.69,78.14-8.31,12.62-26.42.53-19.5-36.48,4.46-23.84-.92-44.53-5.31-56.24-16.32-14.14-34.16-27.86-52.34-38.92-4.16,21.14-12.41,52.85-24.11,49.11-12.73-4.07-13.74-45.47-13.37-67.35a108.57,108.57,0,0,0-30-6.37c-15.94-.86-31,2.93-44.15,13.11-9.52,7.34-15.84,17.36-19.51,29.15,27.87,14.23,72.5,40.08,67.13,57.44-5,16.12-43.87-3.87-71-20.19,1.78,31.72,14,68.08,30.69,99.52,6.45,3.11,15.51,5.58,27.93,5.49,32.93-.25,81.48,12.39,73.74,28.72s-34.57,7.69-56.12-1.76c-11.07-4.85-21.54-7.65-30.8-7.78q5.16,7.7,10.59,14.57c68.78,87.06,156.2,23.19,156.2,23.19S1290.08,1912.75,1208.52,1833.5Zm-108.75,82.16c-8.72,6.24-34.32.13-47.32-4.15s-12.35-14.21-4.88-17l.32-.12C1058.5,1890.64,1111.08,1907.56,1099.77,1915.66Zm60.61-77.16c.07-.09.15-.18.21-.27,4.93-6.26,13.06-5.84,15.92,4.21,3.76,13.17,1.67,21-8.91,22.75C1161,1866.31,1153.59,1847.47,1160.38,1838.5Z"/><path fill="#254f42" d="M1110.49,1870.45c25.43,23.41,50.64,47.69,71.18,75.62,15.73,21.37,27.85,44.86,38.83,68.94,7.78,17.06,15.19,34.29,22.79,51.44,1,2.31,4.44.31,3.41-2-12.49-28.15-24.13-56.86-38.74-84-13.11-24.37-29.46-46.47-48.13-66.85-14.73-16.08-30.51-31.17-46.55-45.93-1.87-1.72-4.67,1.07-2.79,2.79Z"/><path fill="#254f42" d="M1244.74,2069.48a3.55,3.55,0,0,1-3.27-2.22q-4-8.91-7.86-17.83c-4.84-11-9.85-22.45-14.93-33.59-9-19.7-21.5-45.31-38.62-68.58-21.14-28.74-47.7-54-70.93-75.34h0a3.76,3.76,0,0,1-.19-5.44,3.94,3.94,0,0,1,5.69-.29c13.31,12.25,30.65,28.55,46.67,46,20,21.78,35.79,43.78,48.42,67.25,11.29,21,21,43.2,30.29,64.68,2.78,6.4,5.65,13,8.52,19.47a4.14,4.14,0,0,1-2.18,5.49A3.93,3.93,0,0,1,1244.74,2069.48Zm-45.67-100.61a475.5,475.5,0,0,1,23.25,45.31c3.6,7.9,7.16,15.92,10.65,23.85-8.27-19-16.91-38.31-26.77-56.65Q1202.8,1975.07,1199.07,1968.87Z"/><path fill="#6fc183" d="M1302.68,2016.8s87,64.49,156.36-22.1c3.64-4.54,7.22-9.38,10.69-14.49-9.27.07-19.76,2.79-30.86,7.56-21.62,9.3-48.52,17.77-56.13,1.37s41-28.69,73.94-28.2c12.42.18,21.49-2.23,28-5.3,16.95-31.32,29.38-67.59,31.38-99.3-27.21,16.13-66.24,35.85-71.1,19.7-5.25-17.41,39.56-42.94,67.53-57-3.59-11.82-9.85-21.88-19.31-29.29-13.13-10.27-28.11-14.16-44.06-13.41a108.41,108.41,0,0,0-30.08,6.16c.21,21.88-1.09,63.28-13.85,67.26-11.72,3.65-19.75-28.12-23.76-49.28-18.26,10.93-36.2,24.52-52.61,38.55-4.48,11.68-10,32.33-5.71,56.2,6.67,37.06-11.53,49-19.75,36.35-11.95-18.41,10.19-61.32,9.23-78.08C1230.46,1932.19,1302.68,2016.8,1302.68,2016.8Zm170.09-101.28.32.12c7.45,2.85,8.08,12.77-5,17s-38.67,10.13-47.35,3.83C1409.49,1928.26,1462.19,1911.71,1472.77,1915.52Zm-119.51-30c-10.57-1.84-12.6-9.68-8.75-22.82,2.93-10,11.06-10.39,16-4.1l.21.27C1367.39,1867.87,1359.91,1886.66,1353.26,1885.5Z"/><path fill="#254f42" d="M1407.56,1888.35c-52.58,52.74-94.33,113.89-134.71,176.1-1.39,2.14,2,4.12,3.41,2,40.2-61.93,81.75-122.81,134.09-175.31,1.8-1.8-1-4.59-2.79-2.79Z"/><path fill="#254f42" d="M1274.6,2069.35a4.17,4.17,0,0,1-2.27-.68,3.75,3.75,0,0,1-1.16-5.31c38.64-59.52,80.9-122.19,135-176.42h0a3.76,3.76,0,0,1,3.71-1,4.23,4.23,0,0,1,3,2.93,3.81,3.81,0,0,1-1,3.73c-53.54,53.7-95.48,115.88-133.84,175A3.91,3.91,0,0,1,1274.6,2069.35Z"/><path fill="#ef7c59" d="M1436.44,2064.21c0,3.17-77,5.74-172,5.74s-172-2.57-172-5.74,77-5.74,172-5.74S1436.44,2061,1436.44,2064.21Z"/><rect width="317.94" height="440.78" x="1318.63" y="597.29" fill="#f19a6d"/><rect width="239.76" height="332.39" x="1357.72" y="651.49" fill="#f3ce90"/><rect width="134.16" height="185.99" x="1728.72" y="793.13" fill="#f3ce90"/><rect width="239.39" height="99.06" x="3190.69" y="1301.97" fill="#d1dbed"/><rect width="165.1" height="49.53" x="3364.04" y="1582.63" fill="#b5cae8"/><rect width="148.59" height="57.78" x="1671.81" y="1153.38" fill="#d1dbed"/><rect width="140.33" height="66.04" x="1267.32" y="1326.73" fill="#d1dbed"/></g></svg>