<svg xmlns="http://www.w3.org/2000/svg" viewBox="0 0 4680 3120"><g data-name="7"><rect width="4680" height="3120" fill="#fff" data-name="7" opacity="0"/><path fill="#ffe6b3" d="M3429.74,1120.32q-6.1-19.21-12.82-37.91-8-22.41-17-44.05c-160.26-389.5-525.77-596-935.35-658q-11.07-1.66-22.2-3.21c-397.09-54.86-832.59,24.46-1161.28,203.3q-41.72,22.68-81.05,47.5c-94.18,59.46-177.35,127.84-245.39,204.2q-15.5,17.4-30.32,34.69-23.21,27.09-44.77,53.91C253.6,1699,646.84,2308.81,904,2324.51c20.44,1.25,84.18,0,101.92,0H2752c228.71,0,837.36-1.5,1142.46-1.5,279.62,0,247.07-336,232.74-389.06C4036.26,1597.21,3634.33,1764.69,3429.74,1120.32Z"/><ellipse cx="2625.98" cy="2486.58" fill="#faa94d" rx="820.04" ry="101.78"/><ellipse cx="1485.83" cy="2486.58" fill="#faa94d" rx="429.25" ry="66.28"/><path fill="#dd9f5b" d="M1632.52,580.43H1281.13q-41.72,22.68-81.05,47.5c-94.18,59.46-177.35,127.84-245.39,204.2q-15.5,17.4-30.32,34.69-23.21,27.09-44.77,53.91v469.46a44.75,44.75,0,0,0,44.74,44.75h708.18a44.75,44.75,0,0,0,44.74-44.75v-765A44.74,44.74,0,0,0,1632.52,580.43Z"/><path fill="#ffe6c2" d="M1608.76,627.93H1200.08c-94.18,59.46-177.35,127.84-245.39,204.2q-15.5,17.4-30.32,34.69v496a23.76,23.76,0,0,0,23.76,23.76h660.63a23.76,23.76,0,0,0,23.76-23.76V651.69A23.76,23.76,0,0,0,1608.76,627.93Z"/><path fill="#fff8e9" d="M1487.68,1282.32h-112.1V1073.19h-168.2v176.72H1134v-59.84H1056.4V1028.74h-132v334.1a23.76,23.76,0,0,0,23.76,23.76h660.63a23.76,23.76,0,0,0,23.76-23.76V1179H1487.68Z"/><rect width="34.81" height="854.51" x="1252.84" y="580.01" fill="#dd9f5b"/><path fill="#7ca1d8" d="M2757.45,1904.2c-233.6-190.25-314.4-69-407.6-486.24a389.35,389.35,0,0,0-18.75-60.88c-120.92-300.29-570.84-235.38-800.49,26.5a574.28,574.28,0,0,0-82.21,121.53s-165.89,340.53,107.88,671.2c38.4,46.38,91.32,89.28,150.45,131,0,0,0,0,0,0,131,92.31,306.7,165.89,531.94,161.26C2823.92,2456.48,2991.05,2094.46,2757.45,1904.2Z"/><path fill="#637fbf" d="M2757.45,1904.2s77,120.86,13,276.58-561,352-972.74,160c-33.81-15.76-43.83-19.64-91-33.5,131,92.31,306.7,165.89,531.94,161.26C2823.92,2456.48,2991.05,2094.46,2757.45,1904.2Z"/><path fill="#6780b2" d="M2349.85,1418a389.35,389.35,0,0,0-18.75-60.88c-93.84-19.56-522.73-98.38-613.45,73.41-102,193.16,84.65,386.34,138.91,449.28s8.68,195.34,260.46,253.95,671,103.12,640.43-229.52C2523.85,1714,2443.05,1835.19,2349.85,1418Z"/><path fill="#344b70" d="M1530.61,1383.58c149.78-104.35,537.57-324.53,800.49-26.5C2210.18,1056.79,1760.26,1121.7,1530.61,1383.58Z" opacity=".39"/><path fill="#f36b24" d="M3119,2608.25c-36.13-12-168.62-94.64-168.62-94.64l-113.56-299.4s-80.88-392.33-96.37-499c-2.73-18.8-10.11-34-21-46.17-50.92-56.79-178.75-46.45-268.05-20.94-108.4,31-103.21-2.84-103.21-2.84l-295.75-6.38-52.31.88-42.56.72c-65.37,142.08-62,295,79.14,372.41s189.27,203,271.88,227.13,103.24-153.14,103.24-153.14a754.45,754.45,0,0,1,76.16-7c20.85-.7,41.72-.06,56.33,3.59,41.3,10.32,51.62,36.13,51.62,36.13,60.22,249.5,247.79,437.06,247.79,437.06s-20.66,55.06,32.68,98.08,63.67,70.56,148,98.08,160-32.69,160-32.69,60.23-6.88,60.23-37.85S3155.11,2620.3,3119,2608.25Z"/><path fill="#ffcad3" d="M3119,2608.25c-36.13-12-168.62-94.64-168.62-94.64l-113.56-299.4s-9.36-45.38-22.32-109.49c-25.14-124.35-63.83-319.11-74.05-389.51-2.73-18.8-10.11-34-21-46.17-165.1,40.77-161.79,177.76-161.79,177.76a202.35,202.35,0,0,0-78.07,57c-64.57,76-67.76,183-67.76,183s91.19-13.77,132.49-3.44,51.62,36.13,51.62,36.13a777.48,777.48,0,0,0,29,93.13c76.5,201.6,218.83,343.93,218.83,343.93s-20.66,55.06,32.68,98.08,63.67,70.56,148,98.08,160-32.69,160-32.69,60.23-6.88,60.23-37.85S3155.11,2620.3,3119,2608.25Z"/><path fill="#e23e24" d="M2370.56,2106.79c-5.22,36.64-39.24,95.52-163.56-28.79s-235.54-73.28-265.65-205.44c-22.56-99.14,30.68-192.38,58.71-232.8l-42.56.72c-65.37,142.08-62,295,79.14,372.41s189.27,203,271.88,227.13,103.24-153.14,103.24-153.14,1-34,13.45-77.26C2402.55,2030.76,2374.49,2079.38,2370.56,2106.79Z"/><path fill="#e23e24" d="M2469.82,1772.27c-66.31,33.15-217.19-26.29-193.19,11.42,19.83,31.15,182.21,69.31,246,81.66a200.64,200.64,0,0,1,35-18.55s-1.49-61.75,47.51-114.68C2570.88,1738.05,2513.43,1750.46,2469.82,1772.27Z"/><path fill="#ffcad3" d="M2740.41,1715.21c-2.73-18.8-10.11-34-21-46.17-48.26,11.92-82.13,32-105.9,54.59-57.55,54.56-55.89,123.17-55.89,123.17s113.25,13.66,143.36,67.64c8.91,16,24.41,48.66,41.82,86.81,41.54,91,94,213,94,213s-24.22-117.46-48.69-241.31C2767.85,1870.4,2747.43,1763.51,2740.41,1715.21Z"/><path fill="#fc8aa8" d="M2468.34,2021.58c-30-18.65-6-81.48,11.18-117.74-64.57,76-67.76,183-67.76,183s91.19-13.77,132.49-3.44,51.62,36.13,51.62,36.13a777.48,777.48,0,0,0,29,93.13l2-1.15s-4.77-111.69-26.73-137.47S2511.3,2048.31,2468.34,2021.58Z"/><path fill="#fff" d="M3119,2608.25c-36.13-12-168.62-94.64-168.62-94.64l-113.56-299.4s0,0,0,0c-.58-1.34-16.15-37.54-36.86-84.76-30.79,49.62-81.61,69.8-120.58,78-31,6.47-54.49,5.34-54.49,5.34,76.5,201.6,218.83,343.93,218.83,343.93s-20.66,55.06,32.68,98.08,63.67,70.56,148,98.08,160-32.69,160-32.69,60.23-6.88,60.23-37.85a19.46,19.46,0,0,0-2.29-8.8C3228.08,2645.57,3151.68,2619.16,3119,2608.25Z"/><path fill="#fc8aa8" d="M2626.5,1788.9c-25.09-5-19.84-40.74-13-65.27-57.55,54.56-55.89,123.17-55.89,123.17s113.25,13.66,143.36,67.64c8.91,16,24.41,48.66,41.82,86.81,9.68-38.67-11.07-123.71-26.8-159.87C2698.77,1801.8,2665.21,1796.65,2626.5,1788.9Z"/><path fill="#e6e7e8" d="M2742.77,2001.25c41.54,91,94,213,94,213s-24.22-117.46-48.69-241.31Z"/><path fill="#e6e7e8" d="M3204.25,2688.66c-42.81,0-71.35,24.25-124.16,38.52s-151.26-69.92-174.09-107-17.12-84.19-77.06-148.41c-47.61-51-121.29-203.7-149.62-264.39-31,6.47-54.49,5.34-54.49,5.34,76.5,201.6,218.83,343.93,218.83,343.93s-20.66,55.06,32.68,98.08,63.67,70.56,148,98.08,160-32.69,160-32.69,60.23-6.88,60.23-37.85a19.46,19.46,0,0,0-2.29-8.8C3232.78,2681.91,3220.21,2688.66,3204.25,2688.66Z"/><path fill="#e63f59" d="M2330.59,1166.15c-52.44-34.7-150.43-67.94-156.72-70l44.65,16.4,4.62,132.31-62,3.1-11.39.56-93.61,4.67-57.84-124.92-1.72-11.51s-65.88,12.84-112.5,45.41c-18,12.6-33.22,28.15-40.55,47.07-26.32,67.76-16,249.52-16,249.52L1965.48,1481l-7,140.64-.93,18.8-13.59,30.18s4.45,27.61,54.6,18.7c61.69-11,161.67-17.8,190-10.24,44.58,11.89,156.73,20.45,159.59-33.85,0,0,2.2-33.29,4.69-80.22.77-14.35,1.56-30,2.32-46.32v0c1.73-37.1,3.33-77.89,4.16-115.79l32.68-16S2384.8,1202,2330.59,1166.15Z"/><path fill="#c72846" d="M2298.11,1239.7c-12.94-5.82-9.06,98-9.06,98l21.72,4.83S2311,1245.52,2298.11,1239.7Z"/><path fill="#c72846" d="M2233.19,1639.76c-65.72-10.16-180.82-.88-215.53,0-19.79.51-43-9.44-59.22-18.08l-.93,18.8-13.59,30.18s4.45,27.61,54.6,18.7c61.69-11,161.67-17.8,190-10.24,44.58,11.89,156.73,20.45,159.59-33.85,0,0,2.2-33.29,4.69-80.22.77-14.35,1.56-30,2.32-46.32C2348.38,1568.29,2298.91,1649.93,2233.19,1639.76Z"/><path fill="#e63f59" d="M1965.8,1217.08c-17.54-41.62-52.41-53.29-81.73-54.95-18,12.6-33.21,28.15-40.55,47.07-26.32,67.76-16,249.52-16,249.52,58.83-55.37,174.57-29.19,174.57-29.19s-2.51-118.67-31.11-198.93Q1968.56,1223.63,1965.8,1217.08Z"/><path fill="#c72846" d="M1970.78,1230.52s29,151.78-.63,166.26-128.34-2.72-142.58,61.94c58.83-55.37,174.57-29.19,174.57-29.19s-2.51-118.67-31.11-198.93Z"/><path fill="#b2262f" d="M2256.64,1000.72c3.9-5.4,6.57-13,8.4-20.84a165.06,165.06,0,0,0,3.48-24.27c.49-6.67.49-11.21.49-11.21s30.22-24.73,39.15-104.4-134.62-147.66-215.67-140.11-87.22,71.42-87.22,71.42C1931.1,805,1913.92,851.68,1940,961.57s-63.88,85.16-117.45,141.49c-23.27,24.45-22.57,60.29-14.34,93,6.09,24.21,16.29,46.71,24,61.65,2.67-18.91,6.32-35.75,11.29-48.53,7.34-18.92,22.5-34.47,40.55-47.07,46.62-32.57,112.51-45.41,112.51-45.41l58.18-24.7,48.76,1.62,70,2.35.19.08c4.29,1.42,80.73,27.24,135.19,57.11,7.76,4.26,15.08,8.61,21.67,13a43.61,43.61,0,0,1,4.17,3.13c3-14.84,2.86-34.7-12.18-49.74C2297.17,1094.13,2256.64,1000.72,2256.64,1000.72Z"/><path fill="#ffcad3" d="M2261.06,852.1a91.94,91.94,0,0,0-3.22-10.25s-53.2,13-99,10.18l-17.11-13.41,2.77,17.57-42.1,5.09s-2.78-21.28-14.8-29.15c0,0-1.85,43-7.87,52.29s-31,28.68-31,28.68-57.84-19.43-61.08,32.39,52.28,55,67.55,51.81l-.43,94.71-58.19,24.71,1.71,11.51,57.84,124.92,93.61-4.67,11.39-.56,62-3.1-4.62-132.31-44.79-16.44-.18-.08-.37-49.65s56.37,4.52,83.46-45.62c6.58-9.13,9.66-24.46,11.1-36.83a187.45,187.45,0,0,0,1.27-19.5s.21-11.08-.32-26.47C2268,898.29,2266.12,871.66,2261.06,852.1Z"/><path fill="#fcdadd" d="M2089,1120.08l-7.7-84C2061.83,1087.29,2089,1120.08,2089,1120.08Z"/><path fill="#cd2c35" d="M2068.13,792.58s-21.2.31-10,16.52c0,0-34.91-13.72-59.52,21.8-19.86,28.67-16.4,80.66-9.42,104.26,9.9-38.73,59.52-22.06,59.52-22.06s25-19.43,31-28.68,7.88-52.29,7.88-52.29c12,7.88,14.8,29.15,14.8,29.15l18.15-2.2C2118.53,843.51,2109.4,805.36,2068.13,792.58Z"/><path fill="#cd2c35" d="M2092.49,699.89c-81,7.55-87.22,71.42-87.22,71.42s20.08,25.91,44.8,1.9,50.84-62.85,121.45-41c62.26,19.3,64.14,88,57.9,115.12,16.92-2.7,28.42-5.51,28.42-5.51C2270.33,874.24,2269,944.4,2269,944.4s30.22-24.73,39.15-104.4S2173.54,692.34,2092.49,699.89Z"/><path fill="#9a1d2d" d="M1997.67,979.85c-2.83,30.68-16.66,78-71.86,102.06-74.52,32.5-104.28,70.84-117.57,114.17,6.09,24.21,16.29,46.71,24,61.65,2.67-18.91,6.32-35.75,11.29-48.53,7.34-18.92,22.5-34.47,40.55-47.07,46.62-32.57,112.51-45.41,112.51-45.41l58.18-24.7.44-94.72C2044.45,999.59,2013.79,998.66,1997.67,979.85Z"/><path fill="#9a1d2d" d="M2256.64,1000.72a83.11,83.11,0,0,1-32.85,33.66c3.22,7.27,22.72,49.33,53.81,73.33,17.83,13.79,27.2,30.4,31.32,45.47,7.76,4.26,15.08,8.61,21.67,13a43.61,43.61,0,0,1,4.17,3.13c3-14.84,2.86-34.7-12.18-49.74C2297.17,1094.13,2256.64,1000.72,2256.64,1000.72Z"/><circle cx="2114.38" cy="958.73" r="24.27" fill="#f7727e"/><path fill="#f7727e" d="M2251.71,941.07a24.26,24.26,0,0,0,16,22.82,187.45,187.45,0,0,0,1.27-19.5s.21-11.08-.32-26.47A24.27,24.27,0,0,0,2251.71,941.07Z"/><path fill="#f16077" d="M2209,990.12a7.3,7.3,0,0,1-2.57,3.74c-2.22,1.95-6.74,4.42-15.64,5.12-17.27,1.38-22.86-8.49-23.12-9a3.5,3.5,0,0,0-6.22,3.21c.29.56,6.85,12.91,26.09,12.91,1.22,0,2.49,0,3.8-.16,22.7-1.8,24.53-14.33,24.59-14.87l-6.94-.86Z"/><path fill="#fc8aa8" d="M2199.64,918.18s-6.07-5.43-10.22-.32-3.82,41.66,4.15,46c10,5.44,22.24,2.4,23.31-8.94C2217.92,943.88,2207.91,925.33,2199.64,918.18Z"/><path fill="#47110d" d="M2233.19,894.24a12.19,12.19,0,1,0,12.19,12.19A12.19,12.19,0,0,0,2233.19,894.24Z"/><path fill="#47110d" d="M2136,904.49a13,13,0,1,0,13,13A13,13,0,0,0,2136,904.49Z"/><path fill="#47110d" d="M2223.33,865c-16.54.78-21.37,10.86-21.61,16.08a3.53,3.53,0,0,0,3.33,3.69h.17a3.48,3.48,0,0,0,3.49-3.31c.07-.9,1.08-8.81,14.95-9.46,6-.28,10.43.86,12.93,3.29a6.61,6.61,0,0,1,2,3.45,3.5,3.5,0,1,0,7-.54,13,13,0,0,0-3.56-7.41C2238,866.54,2231.76,864.59,2223.33,865Z"/><path fill="#47110d" d="M2132.91,872.46c-16.27,0-22.63,14.82-22.89,15.45a3.48,3.48,0,0,0,1.87,4.56,3.4,3.4,0,0,0,1.35.28,3.51,3.51,0,0,0,3.23-2.13c.2-.46,4.9-11.16,16.44-11.16,11.26,0,14,7.31,14.13,7.58a3.5,3.5,0,0,0,6.65-2.21C2153.52,884.32,2149.37,872.46,2132.91,872.46Z"/><path fill="#fc8aa8" d="M2010.86,951s20.07-11,29.67-6.66c0,0-9.55,5.62-4,15.21,0,0,4.31-12,10.12-9.69s12.55,22.78,10.8,28.59c0,0,6.65-22.48-6.14-35.56S2013.47,937.33,2010.86,951Z"/><path fill="#fc8aa8" d="M2087.56,1008.22s10.67,67.2,86,87.77l-.37-49.64S2107.55,1026.8,2087.56,1008.22Z"/><path fill="#fc8aa8" d="M2149.05,1215.84c2.2,7.7.55,32.47.55,32.47l.14.17,11.38-.56c0-.4,0-.82,0-1.27C2161.15,1229,2146.84,1208.14,2149.05,1215.84Z"/><polygon fill="#5f173c" points="2171.22 1254.53 2109.87 1434.27 2076.61 1552.7 2320.31 1627.63 2436.86 1551.2 2549.63 1246.95 2415.67 1329.44 2171.22 1254.53"/><polygon fill="#3f0f27" points="2320.31 1627.63 2436.86 1551.2 2549.63 1246.95 2415.67 1329.44 2320.31 1627.63"/><polygon fill="#8a2d5a" points="2320.31 1627.63 2344.71 1611.63 2434.97 1317.56 2415.67 1329.44 2320.31 1627.63"/><path fill="#ffcad3" d="M2481.72,1428.2l-19.17,52.56-3.28,9-22.42,61.47-85.91,55.89s90.06,18.51,119.06-1.23,46.26-87,43.17-120.29S2481.72,1428.2,2481.72,1428.2Z"/><path fill="#fc8aa8" d="M2481.72,1428.2l-19.17,52.56c9,9.72,30.23,14.57,37.42,15.29,12.54,1.25-9.43,95.74-51.23,107.88-18.22,5.29-97.8,3.16-97.8,3.16s90.06,18.51,119.06-1.23,46.26-87,43.17-120.29S2481.72,1428.2,2481.72,1428.2Z"/><path fill="#ffcad3" d="M2532.91,1369.33c-11.15-2.61-40.33-8.27-44.24,2.69-4.86,13.6,2.59,20.72,2.59,20.72s-22.67-3.24-25.9,7.12,17.48,20.08,17.48,20.08-16.84,2.91-20.07,12.62,15.21,16.52,15.21,16.52-13.59,6.47-15.86,14.89,16.19,19.42,30.43,23.31,32.7-7.12,35.62-16.51c1.7-5.51,13.95-22.88,16.68-33.26,2.29-8.7.25-25.62,4-33.14,5.8-11.6.55-23.92-3.73-28.33A24.7,24.7,0,0,0,2532.91,1369.33Z"/><path fill="#fc8aa8" d="M2491.26,1392.74s27,4,38.62,8.47c0,0-18.54-14.51-30.63-14.17C2487.72,1387.36,2491.26,1392.74,2491.26,1392.74Z"/><path fill="#fc8aa8" d="M2482.84,1419.94l35.32,11.75S2493.92,1409.16,2482.84,1419.94Z"/><path fill="#fc8aa8" d="M2470.4,1453.73c5.87,13.42,37.82,7,37.82,7L2478,1449.08Z"/><path fill="#ffcad3" d="M2245.16,1402.71l-.08,0c.88-.67,24.27-18.28,26.05-24.23.58-1.94-.87-3.63-3.67-4.72-5.92-2.35-17.91-2.08-29.38,4l-.21.11c1.54-1.06,26.44-18.48,21.74-29-1.36-3.06-5.88-4.41-11.68-4.75-14.83-.9-38,4.75-38,4.75h0c.88-.71,27.11-21.37,18.77-30.91-1.46-1.67-4.88-2.1-9.61-1.58-22.86,2.44-82.4,21.4-94.54,58.56-5.89,18.05-14.67,59.42-14.67,59.42s-61.22,15.31-90.07,26.61a72.5,72.5,0,0,0-11.79,5.53l-5.87-36.88a309.13,309.13,0,0,0-55.34-6.09c-38-.87-87.09,5-119.23,35.28,0,0,8.88,191.38,127.7,204.71,94.59,10.62,205.67-83.62,250.74-134.13,11.55-13,18.77-23,20.26-27.73,7.27-23,17.58-63.67,37.59-76.4,10.89-6.93,14.95-16.55,10.62-21.93C2270.87,1398.76,2261.39,1397.23,2245.16,1402.71Z"/><path fill="#fc8aa8" d="M1946.8,1423.44c.61,15.35.2,41.34-8.42,52.41-12.6,16.19-40.06,65.7-30.15,73.35s44.77-59.83,99.78-82.79l-5.87-36.88A309.13,309.13,0,0,0,1946.8,1423.44Z"/><path fill="#fc8aa8" d="M2235.07,1428.81c-9.26,6.45-18.13,30.61-18.93,52.76-.51,13.86-6.06,34.34-10.13,47.73,11.55-13,18.77-23,20.26-27.73,7.27-23,17.58-63.67,37.59-76.4,10.89-6.93,14.95-16.55,10.62-21.93C2266.37,1411.69,2243.17,1423.18,2235.07,1428.81Z"/><path fill="#fc8aa8" d="M2267.46,1373.78c-6,3.59-13.55,8.12-14.67,8.68-1.88,1-30.5,18.77-26.28,25.1s18.55-4.82,18.55-4.82h0c.88-.67,24.27-18.28,26.05-24.23C2271.71,1376.56,2270.26,1374.87,2267.46,1373.78Z"/><path fill="#fc8aa8" d="M2247.93,1344c1.2,3.45-1.57,10.71-8.39,15.06-13.81,8.82-34.45,21-27,23.46s25.22-4.68,25.22-4.68h0l0,0c1.54-1.06,26.44-18.48,21.74-29C2258.25,1345.73,2253.73,1344.38,2247.93,1344Z"/><path fill="#fc8aa8" d="M2219.08,1316.29c-1.21,4.09-4.54,10.33-13.65,15.85-15.16,9.15-20.31,24-13.65,23.46s18.12-6.81,18.12-6.81h0c.88-.71,27.11-21.37,18.77-30.91C2227.23,1316.2,2223.81,1315.77,2219.08,1316.29Z"/><path fill="#fcdadd" d="M2140.19,1497.56l-179.92,104.8S2101.24,1562.48,2140.19,1497.56Z"/><path fill="#fff" d="M3003.14,2418.13c-51.24-47.19-117.31-76.86-117.31-76.86l-.48,1,17.55,46.27,40.26,106.12,7.18,19S3054.38,2465.33,3003.14,2418.13Z"/><path fill="#e6e7e8" d="M3003.14,2418.13c-51.24-47.19-117.31-76.86-117.31-76.86l-.48,1,17.55,46.27c20.55,5.76,59.92,19.71,71.3,44.38,11.14,24.13-14.76,46.28-31,61.74l7.18,19S3054.38,2465.33,3003.14,2418.13Z"/><polygon fill="#fff" points="2411.91 1311.32 2229.2 1232.18 2197.01 1261.97 2415.67 1329.44 2549.63 1246.95 2507.11 1235.94 2411.91 1311.32"/><path fill="#fff1d7" d="M2805.51,873.32s20.12-76.94,22.07-92.8-50.2,88.94-50.2,88.94,23.29-127.82,11.46-135.45-36.35,138.65-36.35,138.65-31.84-182.14-42.25-179,18.17,182.72,18.17,182.72S2635,715.6,2626.19,719.57s47.32,101.62,47.32,101.62-49.6-58.68-61.87-52.64,110.48,140.34,110.48,140.34l88.93,3.8s75.74-129.49,78.1-151.19S2805.51,873.32,2805.51,873.32Z"/><path fill="#eac286" d="M2836.75,895.37l-119.36-1.49c-5.7-.07-10.21,4.49-9.72,9.82L2720,1037a9.43,9.43,0,0,0,9.49,8.28l91.4,1.14a9.43,9.43,0,0,0,9.69-8l15.64-133C2846.84,900.11,2842.45,895.44,2836.75,895.37Z"/><path fill="#f4d49d" d="M2816.52,895.12l-119.36-1.49c-5.7-.07-10.21,4.49-9.72,9.82l12.33,133.32a9.43,9.43,0,0,0,9.49,8.28l91.4,1.14a9.43,9.43,0,0,0,9.69-8l15.64-133C2826.61,899.86,2822.22,895.19,2816.52,895.12Z"/><path fill="#eac286" d="M3200.85,991.84H2952.37a25.28,25.28,0,0,0-25.27,25.28h0a25.28,25.28,0,0,0,25.27,25.27h248.48a9,9,0,0,0,9-9v-32.55A9,9,0,0,0,3200.85,991.84Z"/><path fill="#f4d49d" d="M3239,992.38H2990.55a25.27,25.27,0,1,0,0,50.54H3239a9,9,0,0,0,9-9v-32.56A9,9,0,0,0,3239,992.38Z" opacity=".75"/><path fill="#fff1d7" d="M2976.78,1017.12a16,16,0,0,0,16,16H3248v-32.09H2992.83A16,16,0,0,0,2976.78,1017.12Z"/><path fill="#eac286" d="M3197.21,942.24H2915.13a.66.66,0,0,0-.67.66v49.22a.67.67,0,0,0,.67.66h282.08a25.27,25.27,0,0,0,0-50.54Z"/><path fill="#f4d49d" d="M3126.55,942.24H2908.47a7.91,7.91,0,0,0-7.91,7.91v34.72a7.91,7.91,0,0,0,7.91,7.91h218.08a25.27,25.27,0,0,0,0-50.54Z" opacity=".75"/><path fill="#fff1d7" d="M3125.55,950.93h-225V983h225a16,16,0,0,0,0-32.09Z"/><path fill="#f4d49d" d="M3164.92,892.09h-226.7a2.88,2.88,0,0,0-2.88,2.89v44.77a2.88,2.88,0,0,0,2.88,2.89h226.7a25.28,25.28,0,0,0,0-50.55Z"/><path fill="#f4d49d" d="M3106.45,892.09H2931a7.2,7.2,0,0,0-7.2,7.2v36.15a7.2,7.2,0,0,0,7.2,7.2h175.42a25.28,25.28,0,1,0,0-50.55Z" opacity=".75"/><path fill="#fff1d7" d="M3107.22,900.78H2923.83v32.1h183.39a16.05,16.05,0,1,0,0-32.1Z"/><path fill="#dd9f5b" d="M2622.69,1038.36a22,22,0,1,0,0,44.05h794.23q-8-22.41-17-44.05Z"/><path fill="#fbbe49" d="M1395.37,2040a16.11,16.11,0,0,0,16.11,16.12h100.68a16.11,16.11,0,0,0,16.12-16.12V1882.34H1395.37Z"/><path fill="#cb6e3f" d="M1461.82,1874.7c-36.7,0-66.45,3.42-66.45,7.64s29.75,7.63,66.45,7.63,66.46-3.41,66.46-7.63S1498.53,1874.7,1461.82,1874.7Z"/><path fill="#f2834c" d="M1528.29,1914.29V1926c20.91,0,37.92,23.52,37.92,52.43s-17,52.43-37.92,52.43V2040a15.34,15.34,0,0,1-.22,2.64h.22c27.39,0,49.67-28.79,49.67-64.18S1555.68,1914.29,1528.29,1914.29Z"/><path fill="#f39f33" d="M1395.37,1948.18V2040a16.11,16.11,0,0,0,16.11,16.12h100.68a16.11,16.11,0,0,0,16.12-16.12v-33.87C1461.64,2010.59,1417.12,1972.9,1395.37,1948.18Z"/><ellipse cx="3089.77" cy="1819.28" fill="#fbbe49" rx="78.81" ry="153.21" transform="rotate(-26.42 3089.207 1819.107)"/><ellipse cx="3459.99" cy="1917.55" fill="#ef8132" rx="153.21" ry="78.81" transform="rotate(-29.38 3459.595 1917.46)"/><path fill="#fbbe49" d="M3419.33,2039.64c-62,9.36-108.42,42.81-103.6,74.72s59,50.18,121,40.82,108.42-42.81,103.6-74.72S3481.36,2030.28,3419.33,2039.64Z"/><path fill="#ffd589" d="M3078.74,1936.67c-67.58-50.93-143.59-64.05-169.79-29.29s7.35,104.22,74.92,155.15,143.59,64,169.78,29.29S3146.31,1987.6,3078.74,1936.67Z"/><path fill="#ef8132" d="M3448.44,2083.68c-1.59-.25-159.45-22.53-205.25,125.6a2.34,2.34,0,0,0,1.54,2.92,2.43,2.43,0,0,0,.7.11,2.34,2.34,0,0,0,2.23-1.65c44.59-144.25,198.53-122.58,200.08-122.36a2.35,2.35,0,0,0,2.66-2A2.33,2.33,0,0,0,3448.44,2083.68Z"/><path fill="#fbbe49" d="M3428.79,1918.37c-1.56,1-156.92,102-198.47,280.23a2.36,2.36,0,0,0,1.74,2.82,3.29,3.29,0,0,0,.54,0,2.33,2.33,0,0,0,2.27-1.8c41.11-176.31,194.9-276.37,196.44-277.37a2.33,2.33,0,1,0-2.52-3.93Z"/><path fill="#ef8132" d="M3082,1783.32a2.34,2.34,0,0,0-.84,3.2c1.82,3.1,181.37,312.18,159.53,483.32a2.39,2.39,0,0,0,2.32,2.64,2.34,2.34,0,0,0,2.31-2c22-172.71-158.3-483.17-160.12-486.28A2.35,2.35,0,0,0,3082,1783.32Z"/><path fill="#ef8132" d="M3000.39,1961.45a2.34,2.34,0,1,0-1.95,4.25c204.73,94,224,219.79,224.12,221a2.35,2.35,0,0,0,2.32,2,1.62,1.62,0,0,0,.31,0,2.34,2.34,0,0,0,2-2.63C3227,2184.84,3207.67,2056.61,3000.39,1961.45Z"/><path fill="#f39f33" d="M3364.48,2167.93H3098.05c-10.87,0-19.37,8.8-18.31,19l7.87,74.88L3106.43,2441c.93,8.84,8.84,15.58,18.31,15.58h213.05c9.46,0,17.37-6.74,18.3-15.58l10.31-98.15,16.38-156C3383.84,2176.73,3375.35,2167.93,3364.48,2167.93Z"/><path fill="#fbbe49" d="M3262.84,2354.3c-84.66-.85-143.66-54.13-175.23-92.53L3106.43,2441c.93,8.84,8.84,15.58,18.31,15.58h213.05c9.46,0,17.37-6.74,18.3-15.58l10.31-98.15C3343.26,2348.89,3311.83,2354.79,3262.84,2354.3Z"/><path fill="#b77539" d="M1197.11,2466.69a26.13,26.13,0,1,0,52.26,0L1272,2207.45l4.94-56.59h-79.84Z"/><path fill="#b77539" d="M1541.94,2249.21l16.55,217.48a26.13,26.13,0,1,0,52.25,0V2150.86h-76.28Z"/><path fill="#995925" d="M1641.89,2054.9H1160.81a48,48,0,1,0,0,96h481.08a48,48,0,1,0,0-96Z"/><path fill="#b77539" d="M1641.89,2054.9H1160.81a48,48,0,0,0-46.76,58.74c9.44-12,28.13-26.89,62.83-26.89h477.58a76.64,76.64,0,0,1,34.19,5.34A48,48,0,0,0,1641.89,2054.9Z"/><path fill="#774318" d="M1541.94,2249.21c21.24-21.41,49.66-35.95,68.8-44.08v-54.27h-76.28Z"/><path fill="#774318" d="M1197.11,2262.43c19.71-26.61,52.09-44.72,74.9-55l4.94-56.59h-79.84Z"/><path fill="#eac286" d="M1315.69,1959.65c-1.31-5.39-4.35-8.89-7.7-8.89h-88.44c-3.36,0-6.39,3.5-7.7,8.89L1191,2045c-1.17,4.79.84,10.1,3.82,10.1h137.88c3,0,5-5.31,3.82-10.1Z"/><path fill="#fff1d7" d="M1323.94,1946.39c-2-1.42-4.6-1.88-7-2.39a116.77,116.77,0,0,1-19-5.68L1283.63,1957q6.24,3.38,12.77,6.18c4.92,2.11,10.08,4,15.44,4s16.47,2.09,19.49-2.34S1328.34,1949.44,1323.94,1946.39Z"/><path fill="#fff1d7" d="M1224.71,1911.16c-.92-6.51-.14-13.13.76-19.64.79-5.79,1.61-12-1.09-17.2-3.27-6.3-9.85-12.68-13.46-11.89s-14.13,15.71-15.83,22.35c-2.1,8.2-2.76,17.18.78,24.86,3.79,8.22,25.53,28.59,33.16,33.47l4.53-14.86C1228.42,1924.15,1225.62,1917.67,1224.71,1911.16Z"/><path fill="#dd9f5b" d="M1262.29,1851.68a3.32,3.32,0,0,0-3.48-1.71c-12.39.44-21.82,9.93-25,20.5s-1.52,22.08.2,33.25l36.78,6.54,1.14-18.72c.34-5.55.68-11.12,0-16.71A49.77,49.77,0,0,0,1262.29,1851.68Z"/><path fill="#eac286" d="M1292.71,1850.21c-2.9-.53-6,1.53-8,4.31s-3.06,6.17-4.11,9.48l-8.88,28.13c-2.38,7.55-4.77,15.88-2.37,22.91l30.12-3.35c10.84-17.82,10.19-42.91-1.5-57.57C1296.56,1852.32,1294.87,1850.61,1292.71,1850.21Z"/><path fill="#fff1d7" d="M1325.93,1866.93c-3.08-.58-6.27.9-8.51,3.09a29.56,29.56,0,0,0-5.18,7.82l-17.57,33.86-9.56,25.23c9.6-.82,18.56-5.07,27-9.77,4.83-2.7,9.65-5.65,13.27-9.84,7.81-9,8.75-21.93,8.79-33.85,0-3.36,0-6.79-1.21-9.94S1329.23,1867.54,1325.93,1866.93Z"/><path fill="#dd9f5b" d="M1318.88,1916.45c-4.32,1.8-12.53,9-16.79,11.78-4.63,3-10.4,5.18-15.81,3.54l.85,8.3a82.72,82.72,0,0,0,33.2,6.72c9-.06,23-2.44,27.44-9.86,2.79-4.6,6.06-14.23,2.84-20.2C1347.88,1911.67,1330.14,1911.75,1318.88,1916.45Z"/><path fill="#dd9f5b" d="M1240.14,1951.67c-2.77-1-10.9-6.85-12.8-9.08-5.18-6.1-15.62-17.94-21.25-26.74-4.31-6.75-12.71-17.9-17.8-16.68s-9.64,8.76-10.94,15.09c-3,14.69,9.36,28.84,21.56,37.56s22.42,10.11,37.23,12.52c5.9,1,13.25-2.14,16.84-6.92l-4.62-7.18C1246.26,1952.27,1242.91,1952.61,1240.14,1951.67Z"/><path fill="#fff1d7" d="M1260.56,1878.8a5.31,5.31,0,0,0-7.22-2c-8.39,6-12.95,16.27-13.8,26.52s8.54,36,11.87,45.72l9.83-2.64c5.68-8.25,8.78-32,7.43-42C1267.29,1894.34,1266.06,1887.17,1260.56,1878.8Z"/><path fill="#eac286" d="M1253.18,1939.48c-2.39-6.58-4.8-13.25-5.51-20.22-.51-5.06-.11-10.21-.9-15.24a33,33,0,0,0-12-20.58c-3.41-2.7-7.79-4.78-12-3.79-3,.69-5.44,2.8-7.39,5.15-9.23,11.08-3.37,28,4.26,40.19s21.51,18.2,35.58,21.34l3-2.55C1255.92,1944.68,1254,1941.82,1253.18,1939.48Z"/><path fill="#dd9f5b" d="M1292.32,1875.93c-2-.87-4.46-.23-6.51.89-7.39,4-11.25,13.27-13.12,22s-12.73,39.74-16.42,47.85l4.33,1.32c22.64,3.72,38.82-31.49,41.19-42.71,1-4.89,1.52-10,.31-14.73C1299.41,1880.11,1293.89,1876.6,1292.32,1875.93Z"/><path fill="#dd9f5b" d="M1234.87,1951.86c-7.12,2.16-13.93,6-21.35,6.48-20.16,1.22-8.06,13.74-7.54,14.15,5.68,4.54,18.63,6.23,31,4.32,9.65-1.49,21.3-14.34,19.75-23.75Z"/><path fill="#fff1d7" d="M1289.62,1956.61a122.12,122.12,0,0,0-18.08-12.07l-16,8.16c-1.53,4.18-1.16,15.4.2,19.76s5.44,7.66,9.94,9.29,12.3,5.47,17,5.23,6.77-4.72,9.86-7.91a14.26,14.26,0,0,0,3.31-7c.65-2.9.87-6-.36-8.83S1292,1958.51,1289.62,1956.61Z"/><path fill="#eac286" d="M1291.35,1897.91c-5,1.06-8.64,5.77-10.1,10.72s-1.24,10.2-1.41,15.36c-.15,4.7-3.19,9.52-6.06,13.69s-13.53,9.07-18.16,7.62l9.28,4.2c14.6,3.4,31-3.46,38.83-16.23,4.51-7.36,6.22-16.74,3.16-24.82C1304.49,1902.06,1298,1896.5,1291.35,1897.91Z"/><path fill="#eac286" d="M1253.69,1941.17c-5.72,3.36-16.89-2-22.68-5.46a35.21,35.21,0,0,0-5.23-2.49c-9-3.49-12.11,3.31-13,7.63a10.91,10.91,0,0,0,.48,5.65c2,6.31,7.46,10.91,13.32,13.31,10.84,4.45,24.09,1.85,32-7.06a7.7,7.7,0,0,0,2-3.38,6.14,6.14,0,0,0-1.82-5.39A12.76,12.76,0,0,0,1253.69,1941.17Z"/><path fill="#dd9f5b" d="M1302.55,1935.05c-1.29-.09-13.56,4.3-15.5,4.94-6.65,2.18-19.29,5.22-24.67.74a13.64,13.64,0,0,0-5.67,1.76,5.85,5.85,0,0,0-2.87,4.93,7.89,7.89,0,0,0,1.45,3.74c6.64,10.38,20,15.64,32.16,13.47,6.55-1.17,13-4.59,16.29-10.39C1304.68,1952.58,1312,1935.77,1302.55,1935.05Z"/><path fill="#dd9f5b" d="M2442.41,587.92h22.2V380.34q-11.07-1.66-22.2-3.21Z"/><path fill="#f4d49d" d="M2453.51,500.74A131.54,131.54,0,0,0,2322,632.28v30.17H2585V632.28A131.53,131.53,0,0,0,2453.51,500.74Z"/><path fill="#eac286" d="M2453.51,652.62c-72.65,0-131.54,4.4-131.54,9.83s58.89,9.84,131.54,9.84S2585,667.88,2585,662.45,2526.15,652.62,2453.51,652.62Z"/><path fill="#fff1d7" d="M2453.5,697.66c21.71,0,39.4-20,40.27-45h-80.53C2414.11,677.66,2431.8,697.66,2453.5,697.66Z"/></g></svg>