<svg xmlns="http://www.w3.org/2000/svg" xmlns:xlink="http://www.w3.org/1999/xlink" viewBox="0 0 1159 771"><defs><linearGradient id="d" x1="297.33" x2="553.45" y1="259.89" y2="259.89" gradientUnits="userSpaceOnUse"><stop offset="0" stop-color="#a75d1e"/><stop offset="1" stop-color="#5e3b25"/></linearGradient><linearGradient id="a" x1="312.42" x2="539.06" y1="268.55" y2="268.55" gradientUnits="userSpaceOnUse"><stop offset="0" stop-color="#fffdfe"/><stop offset=".99" stop-color="#a9c5db"/></linearGradient><linearGradient id="k" x1="352.01" x2="472.13" y1="96.36" y2="351.3" xlink:href="#a"/><linearGradient id="b" x1="311.65" x2="537.39" y1="407.53" y2="407.53" gradientUnits="userSpaceOnUse"><stop offset=".01" stop-color="#ffa265"/><stop offset="1" stop-color="#e77723"/></linearGradient><linearGradient id="l" x1="492.77" x2="493.63" y1="36.65" y2="277.72" xlink:href="#a"/><linearGradient id="m" x1="384.1" x2="384.96" y1="37.03" y2="278.12" xlink:href="#a"/><linearGradient id="n" x1="406.97" x2="542.59" y1="336.84" y2="632.71" gradientUnits="userSpaceOnUse"><stop offset=".01" stop-color="#8db8cb"/><stop offset=".16" stop-color="#82a6bc"/><stop offset=".52" stop-color="#6a7f9b"/><stop offset=".82" stop-color="#5b6786"/><stop offset="1" stop-color="#555e7f"/></linearGradient><linearGradient id="o" x1="489.42" x2="836.29" y1="329.47" y2="329.47" xlink:href="#b"/><linearGradient id="p" x1="481.2" x2="537.16" y1="374.52" y2="447.78" xlink:href="#b"/><linearGradient id="c" x1="487.87" x2="524.91" y1="347.23" y2="347.23" gradientUnits="userSpaceOnUse"><stop offset="0" stop-color="#e77723"/><stop offset=".99" stop-color="#ed654d"/></linearGradient><linearGradient id="q" x1="478.72" x2="528.97" y1="395.14" y2="395.14" xlink:href="#c"/><linearGradient id="r" x1="424.13" x2="426.57" y1="267.94" y2="267.94" xlink:href="#d"/><linearGradient id="s" x1="312.02" x2="538.66" y1="209.45" y2="209.45" xlink:href="#d"/><linearGradient id="t" x1="312.02" x2="538.66" y1="328.86" y2="328.86" xlink:href="#d"/><linearGradient id="u" x1="288.49" x2="560.22" y1="431.39" y2="431.39" xlink:href="#d"/><linearGradient id="v" x1="884.27" x2="908.22" y1="559.73" y2="559.73" xlink:href="#d"/><linearGradient id="w" x1="772.1" x2="796.75" y1="604.96" y2="604.96" xlink:href="#d"/><linearGradient id="x" x1="598.9" x2="622.98" y1="575.95" y2="575.95" xlink:href="#d"/><linearGradient id="y" x1="525.14" x2="702.16" y1="468.69" y2="468.69" gradientUnits="userSpaceOnUse"><stop offset=".01" stop-color="#9e6e84"/><stop offset="1" stop-color="#764b5c"/></linearGradient><linearGradient id="e" x1="654.19" x2="984.33" y1="356.45" y2="356.45" gradientUnits="userSpaceOnUse"><stop offset="0" stop-color="#764b5c"/><stop offset=".82" stop-color="#9e6e84"/></linearGradient><linearGradient id="z" x1="579.58" x2="816.87" y1="513.18" y2="513.18" xlink:href="#e"/><linearGradient id="h" x1="541.45" x2="603.93" y1="589.81" y2="589.81" gradientUnits="userSpaceOnUse"><stop offset="0" stop-color="#ffab6f"/><stop offset=".99" stop-color="#fba067"/></linearGradient><linearGradient id="f" x1="599.86" x2="777.08" y1="479.47" y2="479.47" gradientUnits="userSpaceOnUse"><stop offset=".01" stop-color="#8db8cb"/><stop offset=".08" stop-color="#7fa2b8"/><stop offset=".2" stop-color="#7089a3"/><stop offset=".32" stop-color="#647693"/><stop offset=".47" stop-color="#5b6888"/><stop offset=".65" stop-color="#566081"/><stop offset="1" stop-color="#555e7f"/></linearGradient><linearGradient id="A" x1="624.63" x2="481.37" y1="415.37" y2="324.35" gradientUnits="userSpaceOnUse"><stop offset="0" stop-color="#555e7f"/><stop offset=".99" stop-color="#8db8cb"/></linearGradient><linearGradient id="g" x1="557.43" x2="724.49" y1="288.42" y2="331.51" gradientUnits="userSpaceOnUse"><stop offset=".01" stop-color="#fdecd8"/><stop offset=".15" stop-color="#fcddc0"/><stop offset=".38" stop-color="#fcc9a1"/><stop offset=".6" stop-color="#fbbb8b"/><stop offset=".81" stop-color="#fbb37e"/><stop offset="1" stop-color="#fbb079"/></linearGradient><linearGradient id="i" x1="747.09" x2="856.39" y1="328.56" y2="328.56" gradientUnits="userSpaceOnUse"><stop offset="0" stop-color="#a7a13f"/><stop offset="1" stop-color="#8f8c2f"/></linearGradient><linearGradient id="j" x1="749.9" x2="843.37" y1="349.88" y2="349.88" gradientUnits="userSpaceOnUse"><stop offset="0" stop-color="#8d9329"/><stop offset=".5" stop-color="#72761f"/><stop offset="1" stop-color="#5a5d16"/></linearGradient><linearGradient id="B" x1="655.03" x2="770.1" y1="403.66" y2="403.66" xlink:href="#f"/><linearGradient id="C" x1="608.55" x2="707.83" y1="350.04" y2="350.04" xlink:href="#b"/><linearGradient id="D" x1="630.35" x2="700.1" y1="368.15" y2="368.15" xlink:href="#b"/><linearGradient id="E" x1="638.24" x2="773.73" y1="351.92" y2="351.92" xlink:href="#b"/><linearGradient id="G" x1="471.95" x2="725.4" y1="429.91" y2="495.61" gradientUnits="userSpaceOnUse"><stop offset=".01" stop-color="#8db8cb"/><stop offset=".12" stop-color="#84aabf"/><stop offset=".51" stop-color="#6b819c"/><stop offset=".82" stop-color="#5b6787"/><stop offset="1" stop-color="#555e7f"/></linearGradient><linearGradient id="H" x1="577.76" x2="658.06" y1="387.17" y2="387.17" xlink:href="#g"/><linearGradient id="I" x1="654.12" x2="863.99" y1="340.63" y2="340.63" xlink:href="#h"/><linearGradient id="J" x1="604.47" x2="635.72" y1="229.61" y2="177.64" gradientTransform="matrix(-.98 .2 .2 .98 1371.75 -105.37)" xlink:href="#d"/><linearGradient id="K" x1="583.68" x2="638.2" y1="272.61" y2="179.85" gradientTransform="matrix(-.98 .2 .2 .98 1371.75 -105.37)" xlink:href="#d"/><linearGradient id="L" x1="603.48" x2="687.17" y1="216.02" y2="220.24" gradientTransform="matrix(-.98 .2 .2 .98 1371.75 -105.37)" gradientUnits="userSpaceOnUse"><stop offset="0" stop-color="#fbb079"/><stop offset=".19" stop-color="#fbb37e"/><stop offset=".4" stop-color="#fbbb8b"/><stop offset=".62" stop-color="#fcc9a1"/><stop offset=".85" stop-color="#fcddc0"/><stop offset=".99" stop-color="#fdecd8"/></linearGradient><linearGradient id="M" x1="591.25" x2="712.49" y1="202.03" y2="202.03" gradientTransform="matrix(-.98 .2 .2 .98 1371.75 -105.37)" xlink:href="#d"/><linearGradient id="N" x1="602.93" x2="618.68" y1="179.22" y2="179.22" gradientTransform="matrix(-.98 .2 .2 .98 1371.75 -105.37)" xlink:href="#d"/><linearGradient id="O" x1="629.03" x2="653.28" y1="237.22" y2="162.01" gradientTransform="matrix(-.98 .2 .2 .98 1371.75 -105.37)" xlink:href="#d"/><linearGradient id="P" x1="641.42" x2="938.16" y1="425.97" y2="425.97" xlink:href="#e"/><linearGradient id="Q" x1="739.93" x2="800.85" y1="570.71" y2="570.71" xlink:href="#h"/><linearGradient id="R" x1="163.1" x2="-89.43" y1="461.18" y2="491.83" gradientUnits="userSpaceOnUse"><stop offset=".01" stop-color="#8db8cb"/><stop offset="1" stop-color="#555e7f"/></linearGradient><linearGradient id="S" x1="163.02" x2="413.96" y1="441.29" y2="441.29" xlink:href="#a"/><linearGradient id="T" x1="175.52" x2="211.78" y1="359.83" y2="359.83" xlink:href="#i"/><linearGradient id="U" x1="180.05" x2="231.68" y1="363.41" y2="363.41" xlink:href="#j"/><linearGradient id="V" x1="259.77" x2="317.74" y1="358.17" y2="358.17" xlink:href="#i"/><linearGradient id="W" x1="222.95" x2="302.58" y1="365.36" y2="365.36" xlink:href="#j"/><linearGradient id="X" x1="223.83" x2="254.45" y1="360.77" y2="360.77" xlink:href="#i"/><linearGradient id="Z" x1="150.72" x2="256.68" y1="408.72" y2="408.72" xlink:href="#b"/><linearGradient id="ab" x1="324.59" x2="387.97" y1="417.76" y2="417.76" gradientUnits="userSpaceOnUse"><stop offset="0" stop-color="#beba59"/><stop offset=".99" stop-color="#b5af51"/></linearGradient><linearGradient id="ac" x1="324.59" x2="355.88" y1="417.93" y2="417.93" gradientUnits="userSpaceOnUse"><stop offset="0" stop-color="#7b8429"/><stop offset="1" stop-color="#7b8429"/></linearGradient><linearGradient id="ad" x1="326.27" x2="372.23" y1="403.2" y2="403.2" gradientUnits="userSpaceOnUse"><stop offset=".01" stop-color="#fdecd8"/><stop offset="1" stop-color="#fbb079"/></linearGradient><radialGradient id="F" cx="705.99" cy="365.13" r="52.4" xlink:href="#c"/><radialGradient id="Y" cx="254.01" cy="287.64" r="11.52" xlink:href="#c"/><radialGradient id="aa" cx="233.55" cy="409.75" r="31.36" xlink:href="#c"/></defs><path fill="#efe4ea" d="M681.2,506.5c36.51,14.29,144.12,22.7,213.29-40.14,34.87-31.68,63.28-104.43,43.8-181.78C916.58,198.36,858.7,198.75,837.82,150c-32.45-75.79-141.14-97.58-204.2,1.21-39.1,61.24-183.82,42-235.75,47.59-106.57,11.54-150.32,107-165.28,183.38s97,146,206,91.17C511.84,436.44,523.46,444.74,681.2,506.5Z"/><ellipse cx="579.5" cy="657.57" fill="#efe4ea" rx="467" ry="54.09"/><rect width="256.13" height="325.6" x="297.33" y="97.09" fill="url(#d)" rx="10.36"/><rect width="226.64" height="309.5" x="312.42" y="113.8" fill="url(#a)" rx="7.79"/><path fill="url(#k)" d="M311.65,382.71H539.06V124.27c0-6.56-4.79-11.88-10.7-11.88h-206c-5.91,0-10.7,5.32-10.7,11.88Z"/><path fill="url(#b)" d="M322.27,432.61H526.76c5.87,0,10.63-3.75,10.63-8.36v-41.8H311.65v41.8C311.65,428.86,316.4,432.61,322.27,432.61Z"/><path fill="url(#l)" d="M467.27,298.1v18.14H456.9a6.94,6.94,0,0,0-6.73,7.14v45.53h87.22v-95.8H490.81a10.08,10.08,0,0,0-7.34,3.23l-13.16,14A11.36,11.36,0,0,0,467.27,298.1Z"/><path fill="url(#m)" d="M394.59,351.65H373.21V288.3c0-5.63-4.3-10.2-9.6-10.2H344.75c-5.3,0-9.6,4.57-9.6,10.2v80.61h99.63V190.23c0-5.63-4.3-10.2-9.61-10.2h-21c-5.3,0-9.6,4.57-9.6,10.2Z"/><path fill="url(#n)" d="M450.17,382.16H434.78V368.91H335.15v63.7H525.4a12,12,0,0,0,12-12V368.91H450.17Z"/><path fill="url(#o)" d="M515.14,292c-7,8.55-5.22,17.1-5.22,17.1-9.83.95-13.35,4.53-14.79,6.84-1,1.63-2,4.18,0,21.38A15.67,15.67,0,0,0,482.6,331a14.78,14.78,0,0,0-14,19.79c-8.43-4.82-17.61-5.12-23.06-.71-.79.65-3.75,3.06-4.35,6.85-.61,4,1.75,7.6,5.27,12.39h92.6V300.53S522.09,283.43,515.14,292Z"/><path fill="url(#p)" d="M447,375.75c1.12,9.53,10.41,17.93,21.52,15.68-5.22,1.32-24.56,6.91-12.55,15.1,12.56,8.57,21.12,6.49,22.54,6.06-2.71,1-30.27,11.48-13.06,20H528c6.13,0,11.09-6.16,11.09-13.75V368.91H447.41A20.45,20.45,0,0,0,447,375.75Z"/><path fill="url(#c)" d="M512.91,334.84c-3.46,1.26-4.76,6.9-5.2,9.77-4.44-1.6-8.34-1.49-11.61.32-6.69,3.72-8.16,13.17-8.22,13.57a1.21,1.21,0,0,0,1,1.37h.18a1.21,1.21,0,0,0,1.19-1c0-.08,1.36-8.68,7-11.81,2.94-1.63,6.63-1.5,11,.38a1.22,1.22,0,0,0,1.1-.07,1.25,1.25,0,0,0,.59-.93c.27-3.17,1.56-8.49,3.82-9.32,1.36-.49,3.09.85,4.3,2.06,3.05,3,4.59,5.91,4.45,8.27a4.33,4.33,0,0,1-1.41,3,1.21,1.21,0,0,0,1.45,1.93,6.69,6.69,0,0,0,2.36-4.71c.23-3.14-1.5-6.57-5.14-10.2C517.26,335,515,334.09,512.91,334.84Z"/><path fill="url(#q)" d="M523.29,392.94c-3.26-2.15-7.86-2.83-9.25-3a1.21,1.21,0,0,0-.47,2.37l.21,0c.86.1,5.28.71,8.19,2.62,2.18,1.43,5.31,4.81,4.43,7.81a5.67,5.67,0,0,1-4.73,3.69,5.15,5.15,0,0,1-3.25-.81,17.51,17.51,0,0,1-4.38-4.9,1.22,1.22,0,0,0-1-.56,1.2,1.2,0,0,0-1,.5,15,15,0,0,1-5.54,4.76,10.49,10.49,0,0,1-4.34,1.31c-3.4-.15-7-5-8.49-11.62a1.2,1.2,0,0,0-1.49-.89,10.32,10.32,0,0,1-7.64-.74c-1-.56-2.84-1.6-3.3-3.53a5.52,5.52,0,0,1,2.52-5.53,6.24,6.24,0,0,1,5-.7,1.2,1.2,0,1,0,.65-2.32,8.65,8.65,0,0,0-7,1,7.87,7.87,0,0,0-3.53,8.1c.7,3,3.24,4.39,4.46,5.07a12.4,12.4,0,0,0,8.26,1.24c1.95,7.23,6.07,12.13,10.45,12.32h.26a12.62,12.62,0,0,0,5.25-1.56,17.46,17.46,0,0,0,5.37-4.18,18.2,18.2,0,0,0,4.1,4.19,7.32,7.32,0,0,0,4.84,1.24,8,8,0,0,0,6.83-5.41C530.07,398.84,525.76,394.56,523.29,392.94Z"/><rect width="2.44" height="309.5" x="424.13" y="113.19" fill="url(#r)"/><rect width="226.64" height="2.44" x="312.02" y="208.23" fill="url(#s)"/><rect width="226.64" height="2.44" x="312.02" y="327.65" fill="url(#t)"/><rect width="271.73" height="20.71" x="288.49" y="421.03" fill="url(#u)" rx="10.36"/><path fill="#d69c77" d="M772.1,589.11l5,36.89,8.71,64.2a10.28,10.28,0,0,0,13.14.16l-2.24-70.62-.79-25Z"/><path fill="#d69c77" d="M583.78,654.93c3,2.42,11.34.14,11.34.14l19.59-57.31L623,573.58l-19-10.91-7,31.93Z"/><path fill="#d69c77" d="M884.27,548.65,893.83,575l15.87,43.79c8.34,1.89,10.75.13,10.75.13L908.8,569.87l-6-25.18Z"/><polygon fill="url(#v)" points="902.83 544.69 884.26 548.65 893.73 574.76 908.22 567.42 902.83 544.69"/><polygon fill="url(#w)" points="796.71 619.74 795.92 594.77 772.1 589.11 775.9 617.14 796.75 620.82 796.71 619.74"/><polygon fill="url(#x)" points="598.9 585.94 617.62 589.24 622.98 573.58 604 562.67 598.9 585.94"/><path fill="url(#y)" d="M526,434c2.48,26.27,10.23,60.73,21.21,83.73,14.08,29.49,18.84,48.35,31.85,55.38h0a28.38,28.38,0,0,0,13.43,3.09l12.84-15.1,96.83-113.88s-4.26-95.51-48-85.28c-36.57,8.55-94,19.78-116.87,30.5-4.46,2.09-7.59,4.17-9,6.21l-.06.1-.06.09-.07.1s0,.08-.07.13C525,404.27,524.44,417.52,526,434Z"/><path fill="#754c5e" d="M526,434c2.48,26.27,10.23,60.73,21.21,83.73,14.08,29.49,18.84,48.35,31.85,55.38h0a48.27,48.27,0,0,0,13.43,3.09l12.84-15.1c-1.8-26-8.39-31.76-17.19-67.27-4.11-16.59-9.28-36.27-17.13-69-6.59-27.44-21-33.32-33.7-32.4-4.46,2.09-7.59,4.17-9,6.21l-.06.1-.06.09-.07.1s0,.08-.07.13C525,404.27,524.44,417.52,526,434Z"/><path fill="url(#e)" d="M654.19,361.93c.52-.21,31.29-12.73,40.48,60.22,9.27,73.57,88.44,45.25,88.44,45.25l55.5-10.19.89-.16,4.67-.86,117.39-78,22.77-123.86s-20.46-15.84-78.94-9.42l-.16,0c-6.49.71-13.41,1.24-20.6,1.61-31.4,1.62-67.93.24-95.68-1.53-12.17-.78-22.65-1.64-30.27-2.35-7-.66-11.59-1.19-12.87-1.44-6.55-1.27-42.92-6.49-57.65,26.78S666.84,352.51,654.19,361.93Z"/><path fill="#754c5e" d="M786.85,603.62,587.63,575.84s-11.11-63.14,14.69-72.38,185.54,16,185.54,16a70.24,70.24,0,0,1,12.49,29.71C804.93,577.08,790.46,598.56,786.85,603.62Z"/><path fill="#754c5e" d="M955.24,288.78a35.07,35.07,0,0,0-5.58-.72,39.18,39.18,0,0,0-5.63,0,79.15,79.15,0,0,0-21.79,4.86,150.29,150.29,0,0,0-20,9.58c-3.13,1.92-6.39,3.68-9.42,5.74l-5.67,3.81a164.87,164.87,0,0,1,2.21-30.15,307.21,307.21,0,0,1,8-36.11l-.68-.21a169.56,169.56,0,0,0-6.54,17.54,183,183,0,0,0-5.07,18.1,158.57,158.57,0,0,0-3.22,18.69c-.39,3.61-.66,7.25-.74,10.93-7.53-2.51-15.07-4.65-22.77-6.58a248.3,248.3,0,0,0-31.59-5.36,137.66,137.66,0,0,0-32.67.59,72.7,72.7,0,0,0-16.34,4.43,54.85,54.85,0,0,0-11.5,6.28l-.58-.41c-.34-3.1-.45-6.24-.5-9.36,0-5.63.23-11.29.73-16.92,1-11.26,2.59-22.48,4.68-33.59l-.7-.15a170.41,170.41,0,0,0-5,16.46c-.69,2.78-1.36,5.58-2,8.39s-1.11,5.64-1.56,8.49a137.78,137.78,0,0,0-1.91,17.36c-.08,1.72-.13,3.44-.13,5.18-3.23-2-6.5-3.85-9.84-5.69a142,142,0,0,0-22.06-9.77,87.53,87.53,0,0,0-23.71-4.92c-8.06-.58-16.4.52-23.58,4l.25.67a48.68,48.68,0,0,1,23-2,93.08,93.08,0,0,1,22.46,6.21,155.79,155.79,0,0,1,20.91,10.47c4.44,2.63,8.79,5.43,13,8.41.14,1.13.29,2.26.51,3.42-1.08,2.21-1.94,4.23-2.8,6.41-1,2.75-1.95,5.51-2.76,8.29a135.55,135.55,0,0,0-3.94,16.89,171.51,171.51,0,0,0-1.76,17.18c-.14,2.26-.18,4.52-.16,6.78-3-1.74-6-3.41-9.1-5.09-6.19-3.41-12.58-6.46-19-9.34a148.27,148.27,0,0,0-20-7.23c-6.8-1.91-14.08-3.42-21.18-2.2l.06.71c6.89-.37,13.73,1.62,20.22,4a177.68,177.68,0,0,1,19,8.49A346.83,346.83,0,0,1,749,379.05c0,.54,0,1.09.08,1.63a55.56,55.56,0,0,0-3.15,5.51c-1.26,2.5-2.36,5.06-3.39,7.64s-1.9,5.22-2.63,7.9c-.39,1.33-.67,2.7-.94,4.06s-.58,2.71-.74,4.09a58.65,58.65,0,0,0-.29,16.52,50.78,50.78,0,0,0,4.54,15.54l.68-.21a57.83,57.83,0,0,1-2.38-15.39,61.61,61.61,0,0,1,1.7-15.48,80.17,80.17,0,0,1,5.07-14.76,79.16,79.16,0,0,1,7.72-13.37,104.55,104.55,0,0,1,25.68-6.06,177.31,177.31,0,0,1,26.68-.61,255.31,255.31,0,0,1,26.59,2.71c6.37,1,12.72,2.15,19,3.57-4.1,4.25-7.89,8.55-11.57,13.09a164.13,164.13,0,0,0-12.65,18c-1.93,3.12-3.59,6.45-5.29,9.71a82.25,82.25,0,0,0-4.08,10.34c-2.23,7-3.78,14.5-2.69,21.78l.72,0c-.06-7.11,2-14.06,4.77-20.57A102.46,102.46,0,0,1,833,416.16a176.71,176.71,0,0,1,13.18-16.82c4.65-5.27,9.51-10.38,14.65-15.16h0l.05-.06A1.85,1.85,0,0,1,861,384l.2-.19v-.11c4.34-5.52,10.33-9.57,16.67-12.63a102.46,102.46,0,0,1,20.3-7,174.65,174.65,0,0,1,21.23-3.63,203.54,203.54,0,0,1,21.51-1.3v-.72a149.88,149.88,0,0,0-21.82-.69,145.24,145.24,0,0,0-21.93,2.13c-3.64.67-7.29,1.47-10.92,2.44a92.25,92.25,0,0,0-10.74,3.81,57,57,0,0,0-14.09,8.46.2.2,0,0,1,0-.07,90.08,90.08,0,0,1,5.82-26.14,78.69,78.69,0,0,1,8.35-15.82,65.18,65.18,0,0,1,11.8-13.36l.26-.21h0l8.42-6.13c2.88-2.14,6-4,9-5.95s6.18-3.62,9.25-5.45,6.41-3.19,9.61-4.79c6.59-2.75,13.4-5.13,20.48-6.06a38,38,0,0,1,5.32-.39,32.5,32.5,0,0,1,5.31.31c3.45.56,7.06,1.54,9.73,3.73l.5-.52C962.49,291.06,958.87,289.7,955.24,288.78Zm-79.18,32.31a70.73,70.73,0,0,0-6.14,7.59,85.93,85.93,0,0,0-9.28,17.09,80.33,80.33,0,0,0-5.07,18.72,93.87,93.87,0,0,0-1,9.6c0,.63-.06,1.26-.08,1.89q-2.85-.72-5.74-1.38Q842.05,373,835.27,372a243.69,243.69,0,0,0-27.31-3,184.71,184.71,0,0,0-27.78.93A109.49,109.49,0,0,0,755.46,376h0c0-3.44.11-6.88.37-10.31a160.64,160.64,0,0,1,5.52-32.59,101,101,0,0,1,5.6-15.46c7.89-6.58,18.05-9.77,28.15-11.3a136.81,136.81,0,0,1,31-.31,240.74,240.74,0,0,1,30.74,4.92c7.83,1.75,15.61,3.78,23.27,6.16l-.54.5C878.32,318.72,877.21,319.91,876.06,321.09Z"/><path fill="#754c5e" d="M579.76,474.76a42.07,42.07,0,0,0,22.5,34.67c19.86,10.39,155.42,22.77,163.29,23.46,6.14.54,25.64-4.22,40.11-19.62a60,60,0,0,0,10.6-15.61c13-27.91,38.62-48.59,38.62-48.59S720,441,709.7,441.44s-120.57.94-127.44,17.58c-.11.27-.21.53-.31.8a35,35,0,0,0-2.22,11.1A37.88,37.88,0,0,0,579.76,474.76Z"/><path fill="url(#z)" d="M816.87,491.1q-52.43-7.34-107.53-13.53-66.09-7.41-128.91-12.3a185.08,185.08,0,0,0,7,71.15l194,24.67Z"/><path fill="url(#h)" d="M577.5,557.74s-10.62,32.84-23.84,43.61-13.21,10.77-11.3,15.81,25.89,7.49,36,3.68,9.4-20.86,19.49-24.68,4.35-18.94,5.58-30.93S577.5,557.74,577.5,557.74Z"/><path fill="#f4ae9f" d="M782.48,543.06c-.88-10.75-17-9.43-28.19-13.92S739.93,552,739.93,552s28.62,19.29,35.32,35,6.69,15.68,12.06,15.24,14.36-22.81,13.48-33.56S783.36,553.8,782.48,543.06Z"/><path fill="#d69c77" d="M603.08,562.38l-27-.68c-1,2.64-2.38,6.38-4.18,10.58l25.12,3.23S586.75,599,585.8,613.27c3.42-6.42,5.41-14.6,12-17.11,10.08-3.81,4.35-18.94,5.58-30.93A6.36,6.36,0,0,0,603.08,562.38Z"/><path fill="#f89088" d="M782.48,543.06c-.69-8.39-10.65-9.43-20.31-11.61l-22.18,20c0,.31-.06.5-.06.5s4.74,3.2,10.82,8h0l23.93-17S798.11,561.69,799,581.6h0c1.33-4.79,2.09-9.51,1.8-13C799.91,557.86,783.36,553.8,782.48,543.06Z"/><path fill="url(#f)" d="M729.57,470.54l47.51-2-12.6-76.16c-14.44.29-27.84,1.23-40.09,2.56a446.25,446.25,0,0,0-45.13,7.2c-64.07,13.64-73.75,30.51-76.68,37.75a40.24,40.24,0,0,0-2.67,16.8C601,485.05,629,502.1,633,504.45q9.08,5.46,18.16,10.89,42.66,25.59,85.33,51.17l39-31.66-87.26-62.6,6-.25Z"/><path fill="#252362" d="M679.26,402.18c-64.07,13.64-73.75,30.51-76.68,37.75a40.24,40.24,0,0,0-2.67,16.8C601,485.05,629,502.1,633,504.45q9.08,5.46,18.16,10.89l17.52-46.1L694.17,472l35.4-1.46,38.55-45L724.39,395A446.25,446.25,0,0,0,679.26,402.18Z"/><path fill="url(#A)" d="M724.55,394.36l-.22,0a449.34,449.34,0,0,0-45.19,7.22c-27.71,5.9-48.39,13.08-61.46,21.35-10.69,6.76-14,12.8-15.66,16.76a41,41,0,0,0-2.7,17c1,27.83,28,45.05,33.4,48.21l9.08,5.45,9.08,5.44.61.37,17.61-46.34,25,2.72,35.48-1.46h.26L769,425.39l-44.27-30.9Z"/><path fill="url(#g)" d="M769.58,263.84c-.9-.57-3.65-2-9.35-.74a24.63,24.63,0,0,0-15.45,11.43c-10.78,17.94-40,66.8-39.25,67.25h0c.39.8-45.14,9.55-90.5,18.07a11.22,11.22,0,0,0-2.79,22.27l102.09,1.73,51.06-68.51C776.75,289.57,777.75,269,769.58,263.84Z"/><path fill="#252362" d="M706.29,340.83l-.13-.09a1.2,1.2,0,0,1,.21.17A.6.6,0,0,0,706.29,340.83Z"/><path fill="#d69c77" d="M714.33,383.86,757.44,326l-10-17.28-51.77,74.8Z"/><path fill="url(#i)" d="M813.67,263.08c-29.29-7.67-55.45-3.47-57.54,3.85-.49,1.71-.71,7.23-3.94,14.76-.1.24-.19.43-.24.55a67.11,67.11,0,0,0-4.18,15.32c-1.92,13.18.18,39,7.4,71.31l71,29.25c4.92-14.05,11.19-32.49,18.11-54.29,12.83-40.39,14.64-50.61,9.3-60.17C846.94,271.8,833.36,268.24,813.67,263.08Z"/><path fill="url(#j)" d="M826.68,396.65c4.62-13.23,10.36-30.16,16.69-50-6.3-22.37-12.5-43.57-12.5-43.57-16.18,15.11-48,55-81,37.81,1.29,8.58,3,18,5.27,28l66.72,27.49Z"/><path fill="url(#B)" d="M753.78,361.91l-28.32,41.44a94.31,94.31,0,0,0,42.76,35.4c34.66,14.1,65.82,1.85,72.32-.87q-5.79-31-11.59-62Z"/><path fill="url(#C)" d="M634.64,339.13l57,57.72,16.24-15.31-99.28-78.3Z"/><path fill="#f8f8f8" d="M625.56,299.84c10.52,20.42,11.66,41.91,11.66,41.91l59.16,54.94c11.45-11.13,4-28.15,4-28.15Z"/><path fill="#e7dce2" d="M640.26,313.33c-.26,5.6-1.37,12.2-4.9,15.23h0a101.3,101.3,0,0,1,1.86,13.19l13.68,12.7,1.24-1.53,6.75-22.49Z"/><path fill="#f8f8f8" d="M641.79,352.9l58.93,39.31L732.28,371l-79.34-71C655,314.08,641.79,352.9,641.79,352.9Z"/><path fill="#e7dce2" d="M668.84,314.24s-8.48,5.8-18.13,6.82c-3.34,15.37-8.92,31.84-8.92,31.84l20.41,13.61,14.28-2.92,21.29-23.45Z"/><polygon fill="url(#D)" points="630.35 343.93 690.04 401.18 700.1 395.15 638.24 335.11 630.35 343.93"/><polygon fill="url(#E)" points="638.24 335.11 700.1 395.15 773.73 373.2 718.22 308.69 638.24 335.11"/><polygon fill="url(#F)" points="638.24 335.11 702.78 375.26 773.73 373.2 700.1 395.15 638.24 335.11"/><path fill="url(#G)" d="M640.1,368s-19.68,8.15-26.61,9.89-49.61,192.6-49.61,192.6l54.46,1.64q23.11-69.17,46.21-138.33A385,385,0,0,0,740,473.89c50.35,19.85,67.27,13.91,72.52,11.76,3.53-1.45,26.08-11.18,32.23-35.54,5.37-21.25-5.89-38.95-8.18-42.39Z"/><g opacity=".57"><path fill="#d8e5ed" d="M812.17,423.72,806.44,422l.3-.95c3.67,1.11,5.73,1.75,5.73,1.75Z"/><path fill="#d8e5ed" d="M604,538.75l-1-.21c.76-3.6,1.62-7.65,2.58-12l1,.21C605.59,531.1,604.73,535.15,604,538.75Zm5.22-24.06-1-.22c.86-3.85,1.77-7.87,2.72-12l1,.22C611,506.82,610.05,510.84,609.19,514.69Zm5.53-24-1-.23c.94-3.94,1.91-7.94,2.9-12l1,.23C616.62,482.77,615.65,486.77,614.72,490.71Zm5.88-23.89-1-.24c1.05-4.11,2.1-8.12,3.12-11.91l1,.26C622.71,458.72,621.66,462.72,620.6,466.82Zm6.4-23.75-1-.27c1.18-4.13,2.35-8.1,3.49-11.81l1,.29C629.35,435,628.18,439,627,443.07Zm7.25-23.49-1-.32c1.45-4.28,2.86-8.17,4.21-11.59l.93.37C637.1,411.44,635.69,415.32,634.25,419.58Zm160.43-1.14c-3.53-1-7.5-2.21-11.81-3.45l.28-1c4.31,1.24,8.28,2.41,11.81,3.45Zm-23.63-6.83c-3.81-1.08-7.77-2.18-11.84-3.3l.26-1c4.08,1.12,8,2.23,11.85,3.31Zm-23.71-6.52c-3.92-1-7.9-2.09-11.89-3.12l.25-1c4,1,8,2.08,11.9,3.12ZM723.53,399c-4.12-1-8.14-2-11.95-2.86l.22-1c3.82.89,7.84,1.85,12,2.87Zm-80-2.1-.89-.47c2.34-4.37,4.44-7.08,6.43-8.28a8.61,8.61,0,0,1,1.9-.82l.29,1a7.48,7.48,0,0,0-1.67.71C647.74,390.06,645.7,392.72,643.48,396.87Zm56.1-3.44c-4.24-.91-8.29-1.72-12-2.43l.18-1c3.76.7,7.82,1.52,12.07,2.43ZM675.43,389c-4.62-.67-8.72-1.13-12.19-1.35l.07-1c3.49.23,7.62.68,12.26,1.36Z"/><path fill="#d8e5ed" d="M600.35,556.27l-1-.19s.42-2.12,1.19-5.88l1,.2C600.77,554.16,600.35,556.27,600.35,556.27Z"/></g><path fill="url(#H)" d="M641.73,385.42,623,373s8.71,2.06,12.1,1.68,7.88-2.83,3.79-4.06-27.29-9.28-27.29-9.28a24.57,24.57,0,0,0-7.34,28.44l2.78,6.8S619.08,412.38,624.6,413s4.08-3.28,4.08-3.28l-11.11-10.89,9.67,7s12.77,5.85,18.49,4.61,4.27-5.12,4.27-5.12c4.46.11,3.43-2.94,2.73-4.55s-14.61-6.05-14.61-6.05l-11.31-9a105.94,105.94,0,0,0,14.9,6.82c.07,0,2,.48,5.81,1.38,2.5.59,4,.95,5.19.11a3.65,3.65,0,0,0,1.31-1.64C655,390.12,641.73,385.42,641.73,385.42Z"/><polygon fill="#d8e5ed" points="794.73 442.16 778.62 455.12 779.33 476.03 815.84 484.66 816.12 483.5 780.49 475.08 779.83 455.67 795.15 443.35 846.02 443.5 846.03 442.31 794.94 442.16 794.73 442.16" opacity=".57"/><path fill="#d8e5ed" d="M787.49,384l-2.08.65c3.92,12.66,27.09,18,28.08,18.19l.47-2.12C813.73,400.64,791,395.43,787.49,384Z" opacity=".57"/><path fill="url(#I)" d="M853.57,284.74a10.53,10.53,0,0,0-5.05-.47,14.89,14.89,0,0,0-10.93,7.36l-39.54,67.55c-26.62-4.07-79.75-11.62-79.69-11.33a36.19,36.19,0,0,0-4-2,35.8,35.8,0,0,0-10.49-2.48s-17.89-4-21.05-1.72,1.27,5.32,13.78,10.91a63.49,63.49,0,0,1-11.68,1.46,45.6,45.6,0,0,1-12.24-.81c-7.37-1.64-10.38-4.68-15.39-3.21-1,.28-2.87.84-3.1,2-.57,3,10.37,7.27,11.75,7.8a57,57,0,0,0,18,3.75,134.82,134.82,0,0,1-15.92-.65c-1.53-.16-4.28-.51-5.89,1.15a5.07,5.07,0,0,0-1.11,4c.12,1.2,1.18,2.62,4.63,4.72,0,0-4.39,6.82,3.52,8.77-.09,1.38-.09,4.17,1.72,6,2,2,5.09,1.91,7.7,1.6,11.16-1.29,45.06-15.36,45.06-15.36l0,.15a252.12,252.12,0,0,0,96.11,23,294.72,294.72,0,0,0,27.09-40.61,291.39,291.39,0,0,0,14.89-31.13C867.16,304.36,862.25,287.93,853.57,284.74Z"/><path fill="#fff" d="M818.6,264.37l-1.11-.15,0,.21v0c-1.17,16.79-14.19,31.81-25.67,35.33-2.7.83-7.67,1.66-10.61-2.11-6.16-7.94-.81-29.47,1.78-38.36l-2.24-.65c-3.33,11.47-8,32-1.37,40.43a9.78,9.78,0,0,0,8.07,3.74,17.4,17.4,0,0,0,5.06-.83c12.2-3.74,26.11-19.17,27.31-37.55v-.16l0-.19Z"/><polygon fill="#d69c77" points="798.05 359.18 803.67 371.16 791.8 358.23 798.05 359.18"/><polygon fill="#d69c77" points="723.56 373.9 725.46 364.93 726.27 375.26 723.56 373.9"/><path fill="url(#J)" d="M757.78,203.17a29.55,29.55,0,0,1,2.75-12.48c6.45-13,31.25-23.73,44-14.93,5.63,3.89,9,11.69,11.52,17.51a63.67,63.67,0,0,1,3.35,9.91s0,12.43-14.68,30.88a1.84,1.84,0,0,1-1.29.86c-4,0-6.73-24.62-6.73-24.62l-5.88,5.34c-2.71-3.8-6.86-8.23-12.38-8.73-8.15-.75-14.11,7.54-18.17,5C758,210.57,757.9,206.9,757.78,203.17Z"/><path fill="url(#K)" d="M797.46,228.84a234.75,234.75,0,0,1,.39,34.36,107.67,107.67,0,0,0,12.79-5.06h0l.56-.27c0-5.8-.45-13.84-.45-13.84L813,257l1.75-.9c-.92-5.74-2.72-14.34-2.72-14.34l4.52,13.37q3-1.63,6.08-3.61a107.05,107.05,0,0,0,12-8.9c-1-5.7-2.76-13.5-2.76-13.5l4.28,12.16c.87-.77,1.7-1.54,2.5-2.29a184.71,184.71,0,0,0-34-63.36l-21.3,19.68,12.28,18C796.37,218.25,797,223.42,797.46,228.84Z"/><path fill="url(#L)" d="M760,204.27c4.44-8.19,12.57-13.08,20.26-12.14,11,1.33,16.35,14,17.17,21.55a24.52,24.52,0,0,1,0,4.61l.35.15c4.24-4.85,9.37-6.32,11.8-4.59s1.8,6.31,1.73,6.9c-.31,2.62-2,5.45-6.34,8.91l9,35c.74,2.85.7,2.18.45,2.78-5.65,13.61-26.91,19.79-30.58,5.51l-6.33-24.61a13.09,13.09,0,0,1-6.16.18C762,246.18,754.58,228.19,760,204.27Z"/><path fill="url(#M)" d="M818.71,250.45l4.36-3.67L821.41,234,826,244.6s-12.33-51.22-23.41-67.1l2-1.87a184.71,184.71,0,0,1,34,63.36c-.8.75-1.63,1.52-2.5,2.29l-4.28-12.16s1.73,7.8,2.76,13.5a107.05,107.05,0,0,1-12,8.9q-3.08,2-6.08,3.61l-1.29-11.32Z"/><path fill="url(#N)" d="M804.5,175.76c5.63,3.89,9,11.69,11.52,17.51a63.67,63.67,0,0,1,3.35,9.91s0,3.5-2.21,9.54c-5.88-18.78-13.66-39-20-39.83A18,18,0,0,1,804.5,175.76Z"/><path fill="#d69c77" d="M777.51,248.33l1.3,5a26.22,26.22,0,0,0,10.64-12.24A25.37,25.37,0,0,1,777.51,248.33Z"/><path fill="#d69c77" d="M778.23,234.48c-1-.73-10.22,2.47-10.22,2.47l.17.22c1.77,1.83,4.53,3.56,6.36,2.63A6.66,6.66,0,0,0,778.23,234.48Z"/><path fill="#fff" d="M808.36,228a3.57,3.57,0,1,0-2.79,4.21A3.57,3.57,0,0,0,808.36,228Z"/><path fill="#d69c77" d="M777,216.71c1.32-3.87,6.51-2.47,7.74.76a39.1,39.1,0,0,1-4-1.08,7.07,7.07,0,0,0-3.72.32Z"/><path fill="#895a3c" d="M776.13,217.5c2.45-3.41,7.58-1.92,9.75,1.05-3.52-1-6.07-2.39-9.75-1.05Z"/><path fill="#d69c77" d="M766,215.6a7,7,0,0,0-3.66-.69,38.33,38.33,0,0,1-4.11.67c1.54-3.09,6.85-4,7.77,0Z"/><path fill="#895a3c" d="M766.75,216.48c-3.53-1.71-6.21-.58-9.81.06,2.46-2.74,7.71-3.7,9.81-.06Z"/><path fill="#d69c77" d="M765.61,228.67a3.15,3.15,0,0,1,2.26.17c.4.36.89.83,1.48.61a22.43,22.43,0,0,0,2-1.63,8.47,8.47,0,0,1,2.11-.94l.17.11a3,3,0,0,1-.93,2.49,3.21,3.21,0,0,1-2.59.74,3.49,3.49,0,0,0-1.27-.09c-.4,0-.87.33-1.33.33a2.18,2.18,0,0,1-2-1.62l.1-.17Z"/><path fill="#895a3c" d="M761.83,218.94a1.72,1.72,0,0,1-.4-.66,4.51,4.51,0,0,1-.33-1.7c0-.82.39-1.59,1.32-1.49a1.2,1.2,0,0,1,1.12,1C763.7,216.87,763.16,220.18,761.83,218.94Z"/><path fill="#895a3c" d="M780.35,219.87a1.88,1.88,0,0,1-.41-.66,4.71,4.71,0,0,1-.32-1.7c0-.82.39-1.58,1.31-1.49a1.22,1.22,0,0,1,1.13,1C782.22,217.81,781.67,221.11,780.35,219.87Z"/><path fill="url(#O)" d="M798,210.78l.27,7.11-15.5-6-2.44.28-2.06.23-2.44.28-1.63.18s-2.7-7.46-.68-13.66c-5.65,5.86-2.49,14-2.49,14l-2.27.26-2.51.28-1.92.22s-3.32-2.15-2.66-4.09a5,5,0,0,0-2,4.11s-10-10.8-1.73-23.23c3-4.53,13.39-3.34,22.75-1.12A22.55,22.55,0,0,1,798,210.78Z"/><path fill="url(#P)" d="M781.48,603.55l20.91-.34,2.33-1,6.41-2.67q24-10,48.89-21.35,32.29-14.72,61.87-29.72c14.26-29.37,24.8-54.23,31.92-71.88,0,0,6.6-16.36,14.69-43.46C978.08,401.1,989.74,354,995,301.23c1.23-12.3,2.94-35-10.79-46.72a29.7,29.7,0,0,0-12.47-6.12,118,118,0,0,1,3.64,20.05c3.37,36.08-8,89.56-43.1,107.59-40,20.58-53.91,6.05-91.17,32.94-45.26,32.67-54.8,94.64-59.11,122.62A250.73,250.73,0,0,0,781.48,603.55Z"/><path fill="#754c5e" d="M781.48,603.55l20.91-.34,8.74-3.64C840,537.36,878.9,442.58,855,425c-4.32-3.19-9.74-3.14-11.31-3.13-30.45.29-54.49,66.71-61.64,109.75A233.54,233.54,0,0,0,781.48,603.55Z"/><path fill="url(#Q)" d="M782.48,542.71c-.88-10.75-42.55,8.89-42.55,8.89s28.62,19.29,35.32,35,6.69,15.69,12.06,15.24,14.36-22.81,13.48-33.55S783.36,553.46,782.48,542.71Z"/><path fill="#d69c77" d="M782.48,542.71c-.69-8.39-10.65-9.43-20.31-11.61L740,551.1c0,.31-.06.5-.06.5s4.74,3.2,10.82,8h0l23.93-17s23.43,18.68,24.31,38.6h0c1.33-4.8,2.09-9.51,1.8-13C799.91,557.51,783.36,553.46,782.48,542.71Z"/><polygon fill="#d69c77" points="175.52 664.09 184.69 664.09 227.52 455.4 227.62 454.92 213.43 449 175.52 664.09"/><polygon fill="#d69c77" points="363.68 449.74 363.55 449 349.36 454.92 392.29 664.09 401.46 664.09 363.68 449.74"/><path fill="url(#R)" d="M415.68,446c0,15.65-56.94,28.34-127.19,28.34S161.3,461.6,161.3,446a7.79,7.79,0,0,1,1.72-4.66c10-13.43,62.35-23.68,125.47-23.68S404,427.86,414,441.29A7.79,7.79,0,0,1,415.68,446Z"/><ellipse cx="288.49" cy="441.29" fill="url(#S)" rx="125.47" ry="23.67"/><path fill="url(#T)" d="M211.48,346.28c-2-4.67-14.66-5.31-21.24-2-9.68,4.8-15.57,31.44-14.62,33.09s20.2-10.85,27.66-16.23S212.61,349,211.48,346.28Z"/><path fill="url(#U)" d="M181.44,368.83c2.83-7,6.34-13.83,11.51-19.48a26.06,26.06,0,0,1,9.24-6.77,13.27,13.27,0,0,1,5.79-1,12.49,12.49,0,0,1,5.69,1.74c3.44,2.1,5.81,5.36,7.84,8.58a34.53,34.53,0,0,1,2.28,5.41q.94,2.7,1.78,5.42c2.23,7.26,4.21,14.56,6.11,21.91l-2.92.69c-1.65-7.35-3.38-14.71-5.35-22-.5-1.81-1-3.62-1.57-5.4a34.41,34.41,0,0,0-1.94-5.1c-1.86-3.19-4-6.3-7-8.26a11,11,0,0,0-5-1.71,12.22,12.22,0,0,0-5.3.77,25.21,25.21,0,0,0-9.1,6.24C188.24,355.24,184.49,362,181.44,368.83Z"/><path fill="url(#V)" d="M261.16,330.6c4.94-7.84,20.74-7.08,31.64.77,16,11.56,26.86,57,24.65,59.69s-34.71-24.46-46.57-36.39S258.32,335.1,261.16,330.6Z"/><path fill="url(#W)" d="M301.27,365.88A136.37,136.37,0,0,0,292,352a93.08,93.08,0,0,0-11.09-12.44,45.5,45.5,0,0,0-6.53-5.07,19.47,19.47,0,0,0-7.52-2.94,10.4,10.4,0,0,0-3.9.31,9.89,9.89,0,0,0-3.37,1.94,18.5,18.5,0,0,0-1.38,1.42c-.39.55-.81,1.05-1.18,1.64-.73,1.18-1.48,2.34-2.19,3.52-5.62,9.58-10.51,19.61-15.33,29.65s-9.4,20.21-13.85,30.41L223,399.18Q230,384,237.52,369c5.06-10,10.18-19.9,16.07-29.44.75-1.18,1.54-2.35,2.3-3.52.39-.59.88-1.16,1.31-1.73a17.43,17.43,0,0,1,1.56-1.54,11.06,11.06,0,0,1,3.88-2.12,11.84,11.84,0,0,1,4.39-.26,20.43,20.43,0,0,1,7.88,3.27,47.21,47.21,0,0,1,6.55,5.31,95.07,95.07,0,0,1,10.87,12.76A135.12,135.12,0,0,1,301.27,365.88Z"/><path fill="url(#X)" d="M224.87,432c0-.12-2.33-11.7,0-35.18.21-2.07.41-4.26.62-6.55,2.14-23.51,5.37-59,28.09-100.79l.88.48c-22.62,41.57-25.84,77-28,100.4q-.3,3.44-.61,6.56c-2.31,23.31,0,34.76,0,34.87Z"/><path fill="url(#Y)" d="M252.48,284.89l-.23-8.23a28.22,28.22,0,0,1,4.57,9.69c.25-2.17.56-4.46,2-6.13s4.29-2.27,5.7-.6c1,1.15.87,2.87.41,4.31a11,11,0,0,1-4.74,6c-.14-1.54,1.76-2.7,3.23-2.23a4.19,4.19,0,0,1,2.59,3.55,6.54,6.54,0,1,1-12.61-1.37,5.73,5.73,0,1,1-11.07-1.29c1-2.62,3.77-4.22,6.55-4.54a22,22,0,0,1,8.25,1.16Z"/><path fill="url(#Z)" d="M242.79,398.07q1.17-13.41,2.32-26.83H209.72l2.1,26.78c-9.61,4.75-16.1,13.79-16.1,24.17a26.08,26.08,0,0,0,9.3,19.64,31.36,31.36,0,0,0,3.29,2.51c4,1.12,11.05,1.87,19.11,1.87,7.7,0,14.5-.68,18.56-1.72a31.55,31.55,0,0,0,3.71-2.83,26.06,26.06,0,0,0,9.1-19.47C258.79,411.85,252.34,402.84,242.79,398.07Z"/><path fill="url(#aa)" d="M242.79,398.07q1.08-12.39,2.15-24.79l-4.65,1.82L237.11,399s22.79,49.47-28.8,45.35c4,1.12,11.05,1.87,19.11,1.87,7.7,0,14.5-.68,18.56-1.72a31.55,31.55,0,0,0,3.71-2.83,26.06,26.06,0,0,0,9.1-19.47C258.79,411.85,252.34,402.84,242.79,398.07Z"/><path fill="#f8f8f8" d="M244.79,369.31H209.4a2.9,2.9,0,1,0,0,5.79h35.39a2.9,2.9,0,1,0,0-5.79Z"/><path fill="#f8f8f8" d="M257,416.1H196.53a.83.83,0,0,0,0,1.66H257a.83.83,0,0,0,0-1.66Z"/><path fill="url(#ab)" d="M387.75,409.65a7.05,7.05,0,0,0-3.06-4.8c-3-1.84-7.3-1.07-10.93,1.7-.09-.9-.22-1.79-.39-2.66-.13-.69-.29-1.36-.47-2-3-1.7-12.46-2.95-23.65-2.95s-20.64,1.25-23.66,2.95c-.17.66-.33,1.33-.46,2a29.1,29.1,0,0,0-.54,5.65c0,14.95,11,27.06,24.66,27.06a23.28,23.28,0,0,0,15.81-6.3l.14.37c4-1.44,8-3.07,11.81-4.86,5.73-2.66,7.16-3.79,8.35-5.47A14.61,14.61,0,0,0,387.75,409.65ZM382,417.93c-.62.87-1.46,1.67-6.72,4.11-1.78.83-3.59,1.62-5.41,2.38a28.78,28.78,0,0,0,4-13.41l.61.53c3-3.45,6.58-4.05,8-3.16a3.15,3.15,0,0,1,1.18,2.09A10.52,10.52,0,0,1,382,417.93Z"/><path fill="url(#ac)" d="M326.78,404l12.61-4.76c-6.62.49-11.72,1.44-13.8,2.61-.17.66-.33,1.33-.46,2a29.1,29.1,0,0,0-.54,5.65c0,14.95,11,27.06,24.66,27.06a22.78,22.78,0,0,0,6.63-1C338.71,437.7,325.85,414.83,326.78,404Z"/><path fill="url(#ad)" d="M372.23,403.2a1.06,1.06,0,0,1-.51.82c-2.2,1.78-11.43,3.12-22.47,3.12S329,405.8,326.78,404a1.06,1.06,0,0,1-.51-.82c0-.38.33-.76.94-1.11,2.81-1.63,11.62-2.83,22-2.83s19.23,1.2,22,2.83C371.9,402.44,372.23,402.82,372.23,403.2Z"/><path fill="#efe4ea" d="M341.38,353.44a46.75,46.75,0,0,0,5.1-3.88,49.92,49.92,0,0,0,4.23-4.26,20.91,20.91,0,0,0,3.19-4.6,7.31,7.31,0,0,0,.68-2.45,5.72,5.72,0,0,0-.39-2.47,44.66,44.66,0,0,0-2.65-4.74,16.72,16.72,0,0,1-2-10h.19l0,1.25.13,1.25a19,19,0,0,0,.45,2.48,16.61,16.61,0,0,0,2.11,4.76,45.07,45.07,0,0,1,2.91,4.76,6.46,6.46,0,0,1,.53,2.69,8,8,0,0,1-.62,2.66,19.27,19.27,0,0,1-3.15,4.83,49.78,49.78,0,0,1-4.23,4.41,47,47,0,0,1-5.17,4,8.87,8.87,0,0,0-1.09.85.82.82,0,0,0-.32.63,5,5,0,0,0,1,2c1,1.5,2.18,3,3.29,4.56s2.24,3.06,3.3,4.61a68.16,68.16,0,0,1,5.75,9.49,29.67,29.67,0,0,1,1.91,5,15.17,15.17,0,0,1,.64,5.13,8.54,8.54,0,0,1-2.08,5,10.53,10.53,0,0,1-2.51,2c-.49.3-1,.57-1.53.84a5.09,5.09,0,0,0-1.35.88l-.17,0a4.41,4.41,0,0,1,1.31-1c.49-.29,1-.57,1.43-.88a9.63,9.63,0,0,0,2.27-2,7.89,7.89,0,0,0,1.65-4.86,15,15,0,0,0-.84-5,30.25,30.25,0,0,0-2.1-4.85,79.36,79.36,0,0,0-6-9.33c-1.09-1.54-2.2-3.06-3.33-4.58s-2.29-3-3.36-4.58a5.41,5.41,0,0,1-1.1-2.45,1.7,1.7,0,0,1,.61-1.25A11.6,11.6,0,0,1,341.38,353.44Z"/></svg>